<svg xmlns="http://www.w3.org/2000/svg" xmlns:xlink="http://www.w3.org/1999/xlink" width="164" zoomAndPan="magnify" viewBox="0 0 123 25.5" height="34" preserveAspectRatio="xMidYMid meet" version="1.2"><defs><clipPath id="4660680765"><path d="M 3.980469 2.726562 L 121.671875 2.726562 L 121.671875 24.796875 L 3.980469 24.796875 Z M 3.980469 2.726562 "/></clipPath><clipPath id="13321a1c47"><path d="M 1.183594 0.269531 L 118.875 0.269531 L 118.875 22.335938 L 1.183594 22.335938 Z M 1.183594 0.269531 "/></clipPath></defs><g id="e76abc8c21"><g clip-rule="nonzero" clip-path="url(#4660680765)"><path style=" stroke:none;fill-rule:evenodd;fill:#0d1117;fill-opacity:1;" d="M 11.082031 2.726562 L 121.65625 2.726562 L 121.65625 17.601562 C 121.65625 21.480469 118.449219 24.691406 114.566406 24.691406 L 3.992188 24.691406 L 3.992188 9.816406 C 3.992188 5.917969 7.179688 2.726562 11.082031 2.726562 Z M 11.082031 2.726562 "/></g><g clip-rule="nonzero" clip-path="url(#13321a1c47)"><path style=" stroke:none;fill-rule:evenodd;fill:#38bdae;fill-opacity:1;" d="M 8.285156 0.269531 L 118.863281 0.269531 L 118.863281 15.140625 C 118.863281 19.023438 115.652344 22.230469 111.769531 22.230469 L 1.195312 22.230469 L 1.195312 7.359375 C 1.195312 3.457031 4.386719 0.269531 8.285156 0.269531 Z M 8.285156 0.269531 "/></g><g style="fill:#0d1117;fill-opacity:1;"><g transform="translate(35.783791, 15.297907)"><path style="stroke:none" d="M 8.28125 -7.015625 C 8.28125 -6.253906 8.050781 -5.648438 7.59375 -5.203125 C 7.132812 -4.765625 6.582031 -4.488281 5.9375 -4.375 C 6.351562 -4.332031 6.628906 -4.117188 6.765625 -3.734375 C 6.910156 -3.359375 6.984375 -2.597656 6.984375 -1.453125 C 6.984375 -0.765625 7.066406 -0.28125 7.234375 0 L 6.015625 0 C 5.929688 -0.34375 5.878906 -1.164062 5.859375 -2.46875 C 5.859375 -2.90625 5.78125 -3.242188 5.625 -3.484375 C 5.46875 -3.722656 5.207031 -3.851562 4.84375 -3.875 C 4.707031 -3.882812 4.492188 -3.890625 4.203125 -3.890625 L 2.5 -3.890625 L 1.8125 0 L 0.6875 0 L 2.28125 -9.03125 L 5.234375 -9.03125 C 5.753906 -9.03125 6.148438 -9.015625 6.421875 -8.984375 C 7.003906 -8.898438 7.457031 -8.695312 7.78125 -8.375 C 8.113281 -8.050781 8.28125 -7.597656 8.28125 -7.015625 Z M 5.28125 -4.828125 C 5.789062 -4.878906 6.210938 -5.078125 6.546875 -5.421875 C 6.890625 -5.765625 7.0625 -6.234375 7.0625 -6.828125 C 7.0625 -7.535156 6.695312 -7.945312 5.96875 -8.0625 C 5.75 -8.101562 5.453125 -8.125 5.078125 -8.125 L 3.25 -8.125 L 2.65625 -4.8125 L 4.390625 -4.8125 C 4.804688 -4.8125 5.101562 -4.816406 5.28125 -4.828125 Z M 5.28125 -4.828125 "/></g></g><g style="fill:#0d1117;fill-opacity:1;"><g transform="translate(45.078643, 15.297907)"><path style="stroke:none" d="M 6.59375 -3.125 L 1.578125 -3.125 C 1.566406 -2.882812 1.5625 -2.703125 1.5625 -2.578125 C 1.5625 -1.941406 1.703125 -1.46875 1.984375 -1.15625 C 2.265625 -0.84375 2.644531 -0.6875 3.125 -0.6875 C 3.59375 -0.6875 4.015625 -0.820312 4.390625 -1.09375 C 4.773438 -1.363281 5.046875 -1.742188 5.203125 -2.234375 L 6.375 -2.234375 C 6.101562 -1.441406 5.648438 -0.835938 5.015625 -0.421875 C 4.390625 -0.015625 3.695312 0.1875 2.9375 0.1875 C 2.132812 0.1875 1.5 -0.0507812 1.03125 -0.53125 C 0.5625 -1.007812 0.328125 -1.679688 0.328125 -2.546875 C 0.328125 -3.078125 0.398438 -3.597656 0.546875 -4.109375 C 0.691406 -4.628906 0.910156 -5.117188 1.203125 -5.578125 C 1.503906 -6.035156 1.910156 -6.40625 2.421875 -6.6875 C 2.929688 -6.976562 3.519531 -7.125 4.1875 -7.125 C 4.988281 -7.125 5.625 -6.890625 6.09375 -6.421875 C 6.570312 -5.953125 6.8125 -5.328125 6.8125 -4.546875 C 6.8125 -4.046875 6.738281 -3.570312 6.59375 -3.125 Z M 4.015625 -6.265625 C 3.390625 -6.265625 2.890625 -6.050781 2.515625 -5.625 C 2.140625 -5.195312 1.875 -4.65625 1.71875 -4 L 5.640625 -4 C 5.660156 -4.21875 5.671875 -4.378906 5.671875 -4.484375 C 5.671875 -5.046875 5.519531 -5.484375 5.21875 -5.796875 C 4.925781 -6.109375 4.523438 -6.265625 4.015625 -6.265625 Z M 4.015625 -6.265625 "/></g></g><g style="fill:#0d1117;fill-opacity:1;"><g transform="translate(53.339303, 15.297907)"><path style="stroke:none" d="M 3.109375 -8.28125 C 3.015625 -8.03125 2.945312 -7.789062 2.90625 -7.5625 L 2.78125 -6.890625 L 4.21875 -6.890625 L 4.0625 -6.015625 L 2.625 -6.015625 L 1.578125 0 L 0.453125 0 L 1.515625 -6.015625 L 0.890625 -6.015625 L 1.046875 -6.890625 L 1.65625 -6.890625 L 1.765625 -7.46875 C 1.835938 -7.832031 1.90625 -8.109375 1.96875 -8.296875 C 2.125 -8.804688 2.367188 -9.195312 2.703125 -9.46875 C 3.046875 -9.738281 3.453125 -9.875 3.921875 -9.875 C 4.285156 -9.875 4.597656 -9.851562 4.859375 -9.8125 L 4.6875 -8.875 C 4.519531 -8.914062 4.347656 -8.9375 4.171875 -8.9375 C 3.617188 -8.9375 3.265625 -8.71875 3.109375 -8.28125 Z M 3.109375 -8.28125 "/></g></g><g style="fill:#0d1117;fill-opacity:1;"><g transform="translate(58.117747, 15.297907)"><path style="stroke:none" d="M 4.34375 -7.09375 C 4.53125 -7.09375 4.6875 -7.0625 4.8125 -7 L 4.640625 -6.15625 C 4.035156 -6.195312 3.507812 -6.03125 3.0625 -5.65625 C 2.613281 -5.28125 2.320312 -4.710938 2.1875 -3.953125 L 1.5 0 L 0.359375 0 L 1.59375 -6.9375 L 2.71875 -6.9375 L 2.53125 -5.859375 L 3.328125 -6.78125 C 3.660156 -6.988281 4 -7.09375 4.34375 -7.09375 Z M 4.34375 -7.09375 "/></g></g><g style="fill:#0d1117;fill-opacity:1;"><g transform="translate(63.563829, 15.297907)"><path style="stroke:none" d="M 6.59375 -3.125 L 1.578125 -3.125 C 1.566406 -2.882812 1.5625 -2.703125 1.5625 -2.578125 C 1.5625 -1.941406 1.703125 -1.46875 1.984375 -1.15625 C 2.265625 -0.84375 2.644531 -0.6875 3.125 -0.6875 C 3.59375 -0.6875 4.015625 -0.820312 4.390625 -1.09375 C 4.773438 -1.363281 5.046875 -1.742188 5.203125 -2.234375 L 6.375 -2.234375 C 6.101562 -1.441406 5.648438 -0.835938 5.015625 -0.421875 C 4.390625 -0.015625 3.695312 0.1875 2.9375 0.1875 C 2.132812 0.1875 1.5 -0.0507812 1.03125 -0.53125 C 0.5625 -1.007812 0.328125 -1.679688 0.328125 -2.546875 C 0.328125 -3.078125 0.398438 -3.597656 0.546875 -4.109375 C 0.691406 -4.628906 0.910156 -5.117188 1.203125 -5.578125 C 1.503906 -6.035156 1.910156 -6.40625 2.421875 -6.6875 C 2.929688 -6.976562 3.519531 -7.125 4.1875 -7.125 C 4.988281 -7.125 5.625 -6.890625 6.09375 -6.421875 C 6.570312 -5.953125 6.8125 -5.328125 6.8125 -4.546875 C 6.8125 -4.046875 6.738281 -3.570312 6.59375 -3.125 Z M 4.015625 -6.265625 C 3.390625 -6.265625 2.890625 -6.050781 2.515625 -5.625 C 2.140625 -5.195312 1.875 -4.65625 1.71875 -4 L 5.640625 -4 C 5.660156 -4.21875 5.671875 -4.378906 5.671875 -4.484375 C 5.671875 -5.046875 5.519531 -5.484375 5.21875 -5.796875 C 4.925781 -6.109375 4.523438 -6.265625 4.015625 -6.265625 Z M 4.015625 -6.265625 "/></g></g><g style="fill:#0d1117;fill-opacity:1;"><g transform="translate(71.824489, 15.297907)"><path style="stroke:none" d="M 3.3125 -7.125 C 4.09375 -7.125 4.671875 -6.929688 5.046875 -6.546875 C 5.421875 -6.160156 5.613281 -5.632812 5.625 -4.96875 L 4.453125 -4.96875 C 4.410156 -5.832031 4.015625 -6.265625 3.265625 -6.265625 C 2.804688 -6.265625 2.460938 -6.15625 2.234375 -5.9375 C 2.015625 -5.726562 1.90625 -5.460938 1.90625 -5.140625 C 1.90625 -4.835938 2.007812 -4.597656 2.21875 -4.421875 C 2.4375 -4.242188 2.753906 -4.09375 3.171875 -3.96875 C 3.878906 -3.757812 4.394531 -3.492188 4.71875 -3.171875 C 5.050781 -2.859375 5.21875 -2.425781 5.21875 -1.875 C 5.21875 -1.25 4.972656 -0.734375 4.484375 -0.328125 C 4.003906 0.0664062 3.347656 0.265625 2.515625 0.265625 C 1.617188 0.265625 0.960938 0.0507812 0.546875 -0.375 C 0.128906 -0.8125 -0.09375 -1.34375 -0.125 -1.96875 L 1.046875 -1.96875 C 1.128906 -1.0625 1.648438 -0.609375 2.609375 -0.609375 C 3.003906 -0.609375 3.332031 -0.710938 3.59375 -0.921875 C 3.863281 -1.140625 4 -1.425781 4 -1.78125 C 4 -2.082031 3.890625 -2.332031 3.671875 -2.53125 C 3.460938 -2.726562 3.109375 -2.898438 2.609375 -3.046875 C 1.972656 -3.242188 1.492188 -3.484375 1.171875 -3.765625 C 0.847656 -4.054688 0.6875 -4.476562 0.6875 -5.03125 C 0.6875 -5.632812 0.914062 -6.132812 1.375 -6.53125 C 1.832031 -6.925781 2.476562 -7.125 3.3125 -7.125 Z M 3.3125 -7.125 "/></g></g><g style="fill:#0d1117;fill-opacity:1;"><g transform="translate(78.933138, 15.297907)"><path style="stroke:none" d="M 4.984375 -7.125 C 5.671875 -7.125 6.195312 -6.96875 6.5625 -6.65625 C 6.925781 -6.34375 7.109375 -5.90625 7.109375 -5.34375 C 7.109375 -4.988281 7.050781 -4.507812 6.9375 -3.90625 L 6.234375 0 L 5.109375 0 L 5.796875 -3.828125 C 5.890625 -4.367188 5.9375 -4.769531 5.9375 -5.03125 C 5.9375 -5.851562 5.488281 -6.253906 4.59375 -6.234375 C 3.25 -6.203125 2.394531 -5.140625 2.03125 -3.046875 L 1.5 0 L 0.359375 0 L 2.0625 -9.6875 L 3.1875 -9.6875 L 2.5 -5.75 L 3.078125 -6.546875 C 3.640625 -6.929688 4.273438 -7.125 4.984375 -7.125 Z M 4.984375 -7.125 "/></g></g></g></svg>