<svg xmlns="http://www.w3.org/2000/svg" xmlns:xlink="http://www.w3.org/1999/xlink" width="402" zoomAndPan="magnify" viewBox="0 0 301.5 51.749998" height="69" preserveAspectRatio="xMidYMid meet" version="1.2"><defs/><g id="47a95e551f"><g style="fill:#38bdae;fill-opacity:1;"><g transform="translate(10.211392, 33.35556)"><path style="stroke:none" d="M 24.125 -18.390625 C 24.507812 -18.390625 24.804688 -18.320312 25.015625 -18.1875 C 25.234375 -18.0625 25.34375 -17.898438 25.34375 -17.703125 C 25.34375 -17.609375 25.316406 -17.488281 25.265625 -17.34375 C 25.210938 -17.207031 25.132812 -17.085938 25.03125 -16.984375 C 24.925781 -16.890625 24.832031 -16.816406 24.75 -16.765625 C 24.664062 -16.722656 24.609375 -16.679688 24.578125 -16.640625 C 24.273438 -16.484375 24.03125 -16.300781 23.84375 -16.09375 C 23.664062 -15.894531 23.515625 -15.582031 23.390625 -15.15625 L 19.984375 -3.265625 C 19.910156 -3.023438 19.875 -2.789062 19.875 -2.5625 C 19.875 -2.34375 19.90625 -2.164062 19.96875 -2.03125 C 20.039062 -1.90625 20.140625 -1.742188 20.265625 -1.546875 C 20.285156 -1.523438 20.335938 -1.453125 20.421875 -1.328125 C 20.503906 -1.210938 20.546875 -1.09375 20.546875 -0.96875 C 20.546875 -0.925781 20.523438 -0.832031 20.484375 -0.6875 C 20.390625 -0.425781 20.210938 -0.242188 19.953125 -0.140625 C 19.703125 -0.046875 19.316406 0 18.796875 0 L 12.3125 0 C 11.925781 0 11.625 -0.0625 11.40625 -0.1875 C 11.195312 -0.320312 11.09375 -0.5 11.09375 -0.71875 C 11.09375 -0.832031 11.125 -0.953125 11.1875 -1.078125 C 11.257812 -1.222656 11.359375 -1.34375 11.484375 -1.4375 C 11.609375 -1.539062 11.738281 -1.632812 11.875 -1.71875 C 12.164062 -1.875 12.398438 -2.054688 12.578125 -2.265625 C 12.765625 -2.484375 12.925781 -2.816406 13.0625 -3.265625 L 14.390625 -7.875 L 9.5 -7.875 L 8.171875 -3.265625 C 8.097656 -3.023438 8.0625 -2.789062 8.0625 -2.5625 C 8.0625 -2.34375 8.09375 -2.164062 8.15625 -2.03125 C 8.21875 -1.90625 8.316406 -1.742188 8.453125 -1.546875 C 8.460938 -1.523438 8.507812 -1.453125 8.59375 -1.328125 C 8.675781 -1.210938 8.71875 -1.09375 8.71875 -0.96875 C 8.71875 -0.925781 8.703125 -0.832031 8.671875 -0.6875 C 8.578125 -0.425781 8.398438 -0.242188 8.140625 -0.140625 C 7.890625 -0.046875 7.503906 0 6.984375 0 L 0.5 0 C 0.113281 0 -0.179688 -0.0625 -0.390625 -0.1875 C -0.609375 -0.320312 -0.71875 -0.5 -0.71875 -0.71875 C -0.71875 -0.832031 -0.691406 -0.953125 -0.640625 -1.078125 C -0.566406 -1.222656 -0.460938 -1.34375 -0.328125 -1.4375 C -0.203125 -1.539062 -0.0703125 -1.632812 0.0625 -1.71875 C 0.351562 -1.875 0.585938 -2.054688 0.765625 -2.265625 C 0.953125 -2.484375 1.113281 -2.816406 1.25 -3.265625 L 4.640625 -15.15625 C 4.710938 -15.394531 4.75 -15.625 4.75 -15.84375 C 4.75 -16.050781 4.71875 -16.222656 4.65625 -16.359375 C 4.59375 -16.492188 4.503906 -16.65625 4.390625 -16.84375 C 4.316406 -16.9375 4.25 -17.03125 4.1875 -17.125 C 4.132812 -17.226562 4.109375 -17.335938 4.109375 -17.453125 C 4.109375 -17.484375 4.128906 -17.570312 4.171875 -17.71875 C 4.242188 -17.957031 4.40625 -18.128906 4.65625 -18.234375 C 4.914062 -18.335938 5.304688 -18.390625 5.828125 -18.390625 L 12.3125 -18.390625 C 12.695312 -18.390625 12.992188 -18.320312 13.203125 -18.1875 C 13.421875 -18.0625 13.53125 -17.898438 13.53125 -17.703125 C 13.53125 -17.609375 13.503906 -17.488281 13.453125 -17.34375 C 13.390625 -17.207031 13.304688 -17.085938 13.203125 -16.984375 C 13.109375 -16.890625 13.019531 -16.816406 12.9375 -16.765625 C 12.851562 -16.722656 12.789062 -16.679688 12.75 -16.640625 C 12.457031 -16.484375 12.21875 -16.300781 12.03125 -16.09375 C 11.851562 -15.894531 11.695312 -15.582031 11.5625 -15.15625 L 10.265625 -10.625 L 15.15625 -10.625 L 16.453125 -15.15625 C 16.523438 -15.394531 16.5625 -15.625 16.5625 -15.84375 C 16.5625 -16.050781 16.53125 -16.222656 16.46875 -16.359375 C 16.40625 -16.492188 16.316406 -16.65625 16.203125 -16.84375 C 16.128906 -16.9375 16.066406 -17.03125 16.015625 -17.125 C 15.960938 -17.226562 15.9375 -17.335938 15.9375 -17.453125 C 15.9375 -17.484375 15.953125 -17.570312 15.984375 -17.71875 C 16.054688 -17.957031 16.222656 -18.128906 16.484375 -18.234375 C 16.742188 -18.335938 17.128906 -18.390625 17.640625 -18.390625 Z M 24.125 -18.390625 "/></g></g><g style="fill:#38bdae;fill-opacity:1;"><g transform="translate(34.541637, 33.35556)"><path style="stroke:none" d="M 9.359375 -14.75 C 11.691406 -14.75 13.382812 -14.375 14.4375 -13.625 C 15.488281 -12.875 16.015625 -11.921875 16.015625 -10.765625 C 16.015625 -10.421875 15.976562 -10.097656 15.90625 -9.796875 C 15.625 -8.585938 14.851562 -7.71875 13.59375 -7.1875 C 12.332031 -6.664062 10.847656 -6.40625 9.140625 -6.40625 C 8.273438 -6.40625 7.460938 -6.460938 6.703125 -6.578125 C 6.691406 -5.617188 6.953125 -4.941406 7.484375 -4.546875 C 8.015625 -4.160156 8.757812 -3.96875 9.71875 -3.96875 C 10.15625 -3.96875 10.578125 -4.019531 10.984375 -4.125 C 11.390625 -4.226562 11.90625 -4.378906 12.53125 -4.578125 C 13.050781 -4.765625 13.398438 -4.859375 13.578125 -4.859375 C 13.785156 -4.859375 13.890625 -4.738281 13.890625 -4.5 C 13.910156 -3.851562 13.671875 -3.175781 13.171875 -2.46875 C 12.671875 -1.757812 11.929688 -1.15625 10.953125 -0.65625 C 9.984375 -0.164062 8.804688 0.078125 7.421875 0.078125 C 5.378906 0.078125 3.703125 -0.4375 2.390625 -1.46875 C 1.085938 -2.5 0.4375 -4 0.4375 -5.96875 C 0.4375 -6.519531 0.507812 -7.160156 0.65625 -7.890625 C 1.125 -10.160156 2.132812 -11.867188 3.6875 -13.015625 C 5.238281 -14.171875 7.128906 -14.75 9.359375 -14.75 Z M 6.90625 -8.234375 C 6.976562 -8.210938 7.078125 -8.203125 7.203125 -8.203125 C 7.972656 -8.203125 8.5625 -8.5625 8.96875 -9.28125 C 9.375 -10 9.566406 -10.796875 9.546875 -11.671875 C 9.535156 -12.191406 9.390625 -12.453125 9.109375 -12.453125 C 8.910156 -12.453125 8.671875 -12.289062 8.390625 -11.96875 C 8.117188 -11.644531 7.847656 -11.160156 7.578125 -10.515625 C 7.304688 -9.867188 7.082031 -9.109375 6.90625 -8.234375 Z M 6.90625 -8.234375 "/></g></g><g style="fill:#38bdae;fill-opacity:1;"><g transform="translate(51.304949, 33.35556)"><path style="stroke:none" d="M 8.8125 -20.40625 C 9.875 -20.40625 10.65625 -20.203125 11.15625 -19.796875 C 11.664062 -19.390625 11.921875 -18.835938 11.921875 -18.140625 C 11.921875 -17.734375 11.859375 -17.335938 11.734375 -16.953125 L 7.40625 -2.875 C 7.34375 -2.65625 7.3125 -2.460938 7.3125 -2.296875 C 7.3125 -2.054688 7.359375 -1.863281 7.453125 -1.71875 C 7.546875 -1.582031 7.675781 -1.453125 7.84375 -1.328125 C 7.96875 -1.191406 8.054688 -1.082031 8.109375 -1 C 8.171875 -0.925781 8.179688 -0.820312 8.140625 -0.6875 C 8.046875 -0.445312 7.859375 -0.269531 7.578125 -0.15625 C 7.304688 -0.0507812 6.890625 0 6.328125 0 L 0.03125 0 C -0.445312 0 -0.796875 -0.078125 -1.015625 -0.234375 C -1.242188 -0.390625 -1.320312 -0.597656 -1.25 -0.859375 C -1.164062 -1.078125 -0.96875 -1.269531 -0.65625 -1.4375 C -0.382812 -1.582031 -0.160156 -1.753906 0.015625 -1.953125 C 0.203125 -2.160156 0.363281 -2.484375 0.5 -2.921875 L 4.6875 -16.703125 C 4.75 -16.867188 4.78125 -17.007812 4.78125 -17.125 C 4.78125 -17.320312 4.726562 -17.484375 4.625 -17.609375 C 4.519531 -17.742188 4.382812 -17.875 4.21875 -18 C 4.039062 -18.144531 3.910156 -18.269531 3.828125 -18.375 C 3.742188 -18.488281 3.726562 -18.640625 3.78125 -18.828125 C 3.894531 -19.253906 4.472656 -19.625 5.515625 -19.9375 C 6.566406 -20.25 7.664062 -20.40625 8.8125 -20.40625 Z M 8.8125 -20.40625 "/></g></g><g style="fill:#38bdae;fill-opacity:1;"><g transform="translate(62.710649, 33.35556)"><path style="stroke:none" d="M 8.8125 -20.40625 C 9.875 -20.40625 10.65625 -20.203125 11.15625 -19.796875 C 11.664062 -19.390625 11.921875 -18.835938 11.921875 -18.140625 C 11.921875 -17.734375 11.859375 -17.335938 11.734375 -16.953125 L 7.40625 -2.875 C 7.34375 -2.65625 7.3125 -2.460938 7.3125 -2.296875 C 7.3125 -2.054688 7.359375 -1.863281 7.453125 -1.71875 C 7.546875 -1.582031 7.675781 -1.453125 7.84375 -1.328125 C 7.96875 -1.191406 8.054688 -1.082031 8.109375 -1 C 8.171875 -0.925781 8.179688 -0.820312 8.140625 -0.6875 C 8.046875 -0.445312 7.859375 -0.269531 7.578125 -0.15625 C 7.304688 -0.0507812 6.890625 0 6.328125 0 L 0.03125 0 C -0.445312 0 -0.796875 -0.078125 -1.015625 -0.234375 C -1.242188 -0.390625 -1.320312 -0.597656 -1.25 -0.859375 C -1.164062 -1.078125 -0.96875 -1.269531 -0.65625 -1.4375 C -0.382812 -1.582031 -0.160156 -1.753906 0.015625 -1.953125 C 0.203125 -2.160156 0.363281 -2.484375 0.5 -2.921875 L 4.6875 -16.703125 C 4.75 -16.867188 4.78125 -17.007812 4.78125 -17.125 C 4.78125 -17.320312 4.726562 -17.484375 4.625 -17.609375 C 4.519531 -17.742188 4.382812 -17.875 4.21875 -18 C 4.039062 -18.144531 3.910156 -18.269531 3.828125 -18.375 C 3.742188 -18.488281 3.726562 -18.640625 3.78125 -18.828125 C 3.894531 -19.253906 4.472656 -19.625 5.515625 -19.9375 C 6.566406 -20.25 7.664062 -20.40625 8.8125 -20.40625 Z M 8.8125 -20.40625 "/></g></g><g style="fill:#38bdae;fill-opacity:1;"><g transform="translate(74.116348, 33.35556)"><path style="stroke:none" d="M 10.6875 -14.609375 C 13.1875 -14.609375 15.03125 -14.097656 16.21875 -13.078125 C 17.40625 -12.066406 18 -10.742188 18 -9.109375 C 18 -8.554688 17.925781 -7.941406 17.78125 -7.265625 C 17.425781 -5.753906 16.769531 -4.429688 15.8125 -3.296875 C 14.863281 -2.160156 13.691406 -1.285156 12.296875 -0.671875 C 10.910156 -0.0546875 9.40625 0.25 7.78125 0.25 C 5.226562 0.25 3.335938 -0.257812 2.109375 -1.28125 C 0.890625 -2.300781 0.28125 -3.660156 0.28125 -5.359375 C 0.28125 -5.929688 0.351562 -6.566406 0.5 -7.265625 C 0.84375 -8.703125 1.503906 -9.972656 2.484375 -11.078125 C 3.472656 -12.191406 4.679688 -13.054688 6.109375 -13.671875 C 7.535156 -14.296875 9.0625 -14.609375 10.6875 -14.609375 Z M 10.609375 -12.140625 C 10.210938 -12.140625 9.796875 -11.796875 9.359375 -11.109375 C 8.929688 -10.421875 8.425781 -9.117188 7.84375 -7.203125 C 7.25 -5.285156 6.953125 -3.941406 6.953125 -3.171875 C 6.953125 -2.765625 7.015625 -2.492188 7.140625 -2.359375 C 7.273438 -2.222656 7.453125 -2.15625 7.671875 -2.15625 C 8.054688 -2.113281 8.457031 -2.441406 8.875 -3.140625 C 9.289062 -3.847656 9.8125 -5.210938 10.4375 -7.234375 C 11.007812 -9.015625 11.296875 -10.3125 11.296875 -11.125 C 11.296875 -11.507812 11.234375 -11.773438 11.109375 -11.921875 C 10.992188 -12.066406 10.828125 -12.140625 10.609375 -12.140625 Z M 10.609375 -12.140625 "/></g></g><g style="fill:#38bdae;fill-opacity:1;"><g transform="translate(93.530842, 33.35556)"><path style="stroke:none" d="M 3.890625 -16.40625 C 4.023438 -19.144531 5.414062 -20.515625 8.0625 -20.515625 C 9.070312 -20.515625 9.859375 -20.289062 10.421875 -19.84375 C 10.984375 -19.40625 11.265625 -18.789062 11.265625 -18 C 11.265625 -17.1875 10.976562 -16.265625 10.40625 -15.234375 L 6.078125 -7.515625 C 5.859375 -7.085938 5.628906 -6.785156 5.390625 -6.609375 C 5.160156 -6.429688 4.882812 -6.34375 4.5625 -6.34375 C 3.84375 -6.34375 3.5 -6.773438 3.53125 -7.640625 Z M 3.8125 -5.578125 C 4.550781 -5.578125 5.171875 -5.328125 5.671875 -4.828125 C 6.179688 -4.335938 6.4375 -3.734375 6.4375 -3.015625 C 6.4375 -2.515625 6.300781 -2.023438 6.03125 -1.546875 C 5.757812 -1.066406 5.390625 -0.675781 4.921875 -0.375 C 4.453125 -0.0703125 3.925781 0.078125 3.34375 0.078125 C 2.625 0.078125 2.015625 -0.164062 1.515625 -0.65625 C 1.015625 -1.15625 0.757812 -1.765625 0.75 -2.484375 C 0.75 -2.984375 0.875 -3.472656 1.125 -3.953125 C 1.382812 -4.429688 1.75 -4.820312 2.21875 -5.125 C 2.6875 -5.425781 3.21875 -5.578125 3.8125 -5.578125 Z M 3.8125 -5.578125 "/></g></g><g style="fill:#38bdae;fill-opacity:1;"><g transform="translate(104.79846, 33.35556)"><path style="stroke:none" d=""/></g></g><g style="fill:#38bdae;fill-opacity:1;"><g transform="translate(111.619819, 33.35556)"><path style="stroke:none" d="M 12.265625 -18.390625 C 12.648438 -18.390625 12.945312 -18.328125 13.15625 -18.203125 C 13.363281 -18.085938 13.46875 -17.921875 13.46875 -17.703125 C 13.46875 -17.609375 13.441406 -17.488281 13.390625 -17.34375 C 13.335938 -17.207031 13.257812 -17.085938 13.15625 -16.984375 C 13.050781 -16.890625 12.957031 -16.816406 12.875 -16.765625 C 12.789062 -16.722656 12.734375 -16.679688 12.703125 -16.640625 C 12.410156 -16.484375 12.171875 -16.300781 11.984375 -16.09375 C 11.796875 -15.894531 11.640625 -15.582031 11.515625 -15.15625 L 8.171875 -3.265625 C 8.097656 -3.023438 8.0625 -2.789062 8.0625 -2.5625 C 8.0625 -2.34375 8.09375 -2.160156 8.15625 -2.015625 C 8.21875 -1.867188 8.316406 -1.710938 8.453125 -1.546875 C 8.617188 -1.304688 8.703125 -1.113281 8.703125 -0.96875 C 8.703125 -0.925781 8.679688 -0.832031 8.640625 -0.6875 C 8.566406 -0.425781 8.398438 -0.242188 8.140625 -0.140625 C 7.890625 -0.046875 7.503906 0 6.984375 0 L 0.5 0 C 0.113281 0 -0.179688 -0.0625 -0.390625 -0.1875 C -0.609375 -0.320312 -0.71875 -0.5 -0.71875 -0.71875 C -0.71875 -0.832031 -0.691406 -0.953125 -0.640625 -1.078125 C -0.566406 -1.273438 -0.445312 -1.429688 -0.28125 -1.546875 C -0.113281 -1.660156 -0.0078125 -1.722656 0.03125 -1.734375 C 0.320312 -1.921875 0.554688 -2.109375 0.734375 -2.296875 C 0.921875 -2.492188 1.082031 -2.816406 1.21875 -3.265625 L 4.578125 -15.15625 C 4.648438 -15.394531 4.6875 -15.625 4.6875 -15.84375 C 4.6875 -16.050781 4.65625 -16.222656 4.59375 -16.359375 C 4.53125 -16.492188 4.441406 -16.65625 4.328125 -16.84375 C 4.171875 -17.082031 4.09375 -17.273438 4.09375 -17.421875 C 4.09375 -17.472656 4.109375 -17.570312 4.140625 -17.71875 C 4.210938 -17.957031 4.375 -18.128906 4.625 -18.234375 C 4.875 -18.335938 5.253906 -18.390625 5.765625 -18.390625 Z M 12.265625 -18.390625 "/></g></g><g style="fill:#38bdae;fill-opacity:1;"><g transform="translate(124.074953, 33.35556)"><path style="stroke:none" d="M 4.390625 -18.328125 C 4.484375 -18.941406 4.65625 -19.367188 4.90625 -19.609375 C 5.164062 -19.859375 5.582031 -19.984375 6.15625 -19.984375 L 8.171875 -19.984375 C 8.554688 -19.984375 8.863281 -19.890625 9.09375 -19.703125 C 9.320312 -19.523438 9.4375 -19.296875 9.4375 -19.015625 C 9.4375 -18.765625 9.328125 -18.453125 9.109375 -18.078125 L 6.953125 -14.40625 C 6.753906 -14.082031 6.539062 -13.859375 6.3125 -13.734375 C 6.09375 -13.617188 5.820312 -13.5625 5.5 -13.5625 L 4.53125 -13.5625 C 4.25 -13.5625 4.035156 -13.640625 3.890625 -13.796875 C 3.742188 -13.953125 3.695312 -14.164062 3.75 -14.4375 Z M 4.390625 -18.328125 "/></g></g><g style="fill:#38bdae;fill-opacity:1;"><g transform="translate(132.525678, 33.35556)"><path style="stroke:none" d="M 26.25 -3.8125 C 26.21875 -3.738281 26.203125 -3.628906 26.203125 -3.484375 C 26.203125 -3.347656 26.234375 -3.242188 26.296875 -3.171875 C 26.359375 -3.097656 26.445312 -3.0625 26.5625 -3.0625 C 26.78125 -3.0625 26.96875 -3.15625 27.125 -3.34375 C 27.28125 -3.539062 27.382812 -3.640625 27.4375 -3.640625 C 27.53125 -3.640625 27.601562 -3.578125 27.65625 -3.453125 C 27.71875 -3.335938 27.75 -3.195312 27.75 -3.03125 C 27.769531 -2.5 27.59375 -1.976562 27.21875 -1.46875 C 26.851562 -0.96875 26.316406 -0.554688 25.609375 -0.234375 C 24.898438 0.0859375 24.046875 0.25 23.046875 0.25 C 21.835938 0.25 20.875 -0.03125 20.15625 -0.59375 C 19.4375 -1.15625 19.066406 -1.90625 19.046875 -2.84375 C 19.046875 -3.519531 19.210938 -4.285156 19.546875 -5.140625 L 21.0625 -9.109375 C 21.15625 -9.347656 21.203125 -9.539062 21.203125 -9.6875 C 21.203125 -9.925781 21.125 -10.113281 20.96875 -10.25 C 20.8125 -10.394531 20.625 -10.46875 20.40625 -10.46875 C 20.09375 -10.46875 19.769531 -10.328125 19.4375 -10.046875 C 19.101562 -9.773438 18.804688 -9.34375 18.546875 -8.75 L 17.03125 -3.8125 C 17 -3.738281 16.984375 -3.628906 16.984375 -3.484375 C 16.984375 -3.347656 17.015625 -3.242188 17.078125 -3.171875 C 17.140625 -3.097656 17.226562 -3.0625 17.34375 -3.0625 C 17.5625 -3.0625 17.75 -3.15625 17.90625 -3.34375 C 18.0625 -3.539062 18.164062 -3.640625 18.21875 -3.640625 C 18.3125 -3.640625 18.382812 -3.578125 18.4375 -3.453125 C 18.5 -3.335938 18.53125 -3.195312 18.53125 -3.03125 C 18.539062 -2.5 18.363281 -1.976562 18 -1.46875 C 17.632812 -0.96875 17.097656 -0.554688 16.390625 -0.234375 C 15.679688 0.0859375 14.828125 0.25 13.828125 0.25 C 12.617188 0.25 11.65625 -0.03125 10.9375 -0.59375 C 10.21875 -1.15625 9.847656 -1.90625 9.828125 -2.84375 C 9.828125 -3.519531 9.992188 -4.285156 10.328125 -5.140625 L 11.84375 -9.109375 C 11.9375 -9.347656 11.984375 -9.539062 11.984375 -9.6875 C 11.984375 -9.925781 11.90625 -10.113281 11.75 -10.25 C 11.59375 -10.394531 11.40625 -10.46875 11.1875 -10.46875 C 10.875 -10.46875 10.550781 -10.332031 10.21875 -10.0625 C 9.882812 -9.789062 9.609375 -9.363281 9.390625 -8.78125 L 7.5625 -2.875 C 7.488281 -2.664062 7.453125 -2.472656 7.453125 -2.296875 C 7.453125 -2.066406 7.5 -1.882812 7.59375 -1.75 C 7.6875 -1.613281 7.816406 -1.472656 7.984375 -1.328125 C 8.109375 -1.210938 8.195312 -1.109375 8.25 -1.015625 C 8.3125 -0.929688 8.320312 -0.820312 8.28125 -0.6875 C 8.207031 -0.445312 8.03125 -0.269531 7.75 -0.15625 C 7.476562 -0.0507812 7.046875 0 6.453125 0 L 0.171875 0 C -0.304688 0 -0.648438 -0.078125 -0.859375 -0.234375 C -1.078125 -0.390625 -1.160156 -0.597656 -1.109375 -0.859375 C -1.035156 -1.078125 -0.84375 -1.269531 -0.53125 -1.4375 C -0.25 -1.582031 -0.0195312 -1.753906 0.15625 -1.953125 C 0.34375 -2.160156 0.503906 -2.484375 0.640625 -2.921875 L 3.09375 -10.90625 C 3.125 -11 3.140625 -11.128906 3.140625 -11.296875 C 3.140625 -11.492188 3.097656 -11.644531 3.015625 -11.75 C 2.941406 -11.863281 2.8125 -12.003906 2.625 -12.171875 C 2.4375 -12.316406 2.304688 -12.445312 2.234375 -12.5625 C 2.160156 -12.675781 2.148438 -12.820312 2.203125 -13 C 2.316406 -13.425781 2.894531 -13.800781 3.9375 -14.125 C 4.988281 -14.445312 6.085938 -14.609375 7.234375 -14.609375 C 8.140625 -14.609375 8.851562 -14.359375 9.375 -13.859375 C 9.894531 -13.359375 10.144531 -12.675781 10.125 -11.8125 C 10.882812 -12.863281 11.679688 -13.59375 12.515625 -14 C 13.359375 -14.40625 14.265625 -14.609375 15.234375 -14.609375 C 16.304688 -14.609375 17.175781 -14.296875 17.84375 -13.671875 C 18.519531 -13.054688 18.894531 -12.253906 18.96875 -11.265625 C 19.757812 -12.515625 20.601562 -13.382812 21.5 -13.875 C 22.40625 -14.363281 23.394531 -14.609375 24.46875 -14.609375 C 25.582031 -14.609375 26.484375 -14.265625 27.171875 -13.578125 C 27.867188 -12.898438 28.21875 -12.019531 28.21875 -10.9375 C 28.21875 -10.363281 28.125 -9.800781 27.9375 -9.25 Z M 26.25 -3.8125 "/></g></g><g style="fill:#38bdae;fill-opacity:1;"><g transform="translate(162.765861, 33.35556)"><path style="stroke:none" d=""/></g></g><g style="fill:#38bdae;fill-opacity:1;"><g transform="translate(169.58722, 33.35556)"><path style="stroke:none" d="M 8.171875 0.171875 C 6.941406 0.171875 5.820312 -0.0976562 4.8125 -0.640625 C 3.8125 -1.191406 3.015625 -1.992188 2.421875 -3.046875 C 1.835938 -4.109375 1.546875 -5.375 1.546875 -6.84375 C 1.546875 -7.96875 1.738281 -9.222656 2.125 -10.609375 C 2.96875 -13.546875 4.296875 -15.617188 6.109375 -16.828125 C 7.921875 -18.046875 9.859375 -18.65625 11.921875 -18.65625 C 13.804688 -18.65625 15.5 -17.976562 17 -16.625 L 17.828125 -17.421875 C 18.296875 -17.804688 18.691406 -18.070312 19.015625 -18.21875 C 19.347656 -18.363281 19.738281 -18.4375 20.1875 -18.4375 C 20.664062 -18.4375 21.050781 -18.320312 21.34375 -18.09375 C 21.632812 -17.863281 21.78125 -17.554688 21.78125 -17.171875 C 21.78125 -17.023438 21.753906 -16.847656 21.703125 -16.640625 L 20.703125 -13.171875 C 20.523438 -12.578125 20.3125 -12.160156 20.0625 -11.921875 C 19.8125 -11.679688 19.472656 -11.5625 19.046875 -11.5625 C 18.609375 -11.5625 18.21875 -11.671875 17.875 -11.890625 C 17.53125 -12.117188 17.140625 -12.519531 16.703125 -13.09375 C 16.109375 -13.863281 15.585938 -14.410156 15.140625 -14.734375 C 14.691406 -15.054688 14.203125 -15.21875 13.671875 -15.21875 C 12.835938 -15.21875 12.046875 -14.796875 11.296875 -13.953125 C 10.554688 -13.117188 9.910156 -11.726562 9.359375 -9.78125 C 9.003906 -8.507812 8.828125 -7.410156 8.828125 -6.484375 C 8.828125 -5.515625 9.015625 -4.773438 9.390625 -4.265625 C 9.773438 -3.753906 10.304688 -3.5 10.984375 -3.5 C 11.578125 -3.5 12.035156 -3.632812 12.359375 -3.90625 C 12.679688 -4.1875 12.929688 -4.671875 13.109375 -5.359375 L 13.3125 -6.046875 C 13.40625 -6.410156 13.453125 -6.660156 13.453125 -6.796875 C 13.453125 -7.015625 13.398438 -7.171875 13.296875 -7.265625 C 13.191406 -7.359375 13.019531 -7.457031 12.78125 -7.5625 L 11.8125 -7.921875 C 11.394531 -8.085938 11.1875 -8.390625 11.1875 -8.828125 C 11.1875 -8.960938 11.191406 -9.066406 11.203125 -9.140625 C 11.273438 -9.378906 11.410156 -9.550781 11.609375 -9.65625 C 11.804688 -9.769531 12.101562 -9.828125 12.5 -9.828125 L 20.84375 -9.796875 C 21.445312 -9.796875 21.75 -9.601562 21.75 -9.21875 C 21.75 -9.144531 21.734375 -9.035156 21.703125 -8.890625 C 21.628906 -8.609375 21.507812 -8.382812 21.34375 -8.21875 C 21.175781 -8.0625 20.9375 -7.898438 20.625 -7.734375 L 19.90625 -7.3125 C 19.71875 -7.207031 19.578125 -7.101562 19.484375 -7 C 19.398438 -6.894531 19.335938 -6.769531 19.296875 -6.625 L 17.828125 -1.515625 C 17.648438 -0.910156 17.445312 -0.503906 17.21875 -0.296875 C 16.988281 -0.0976562 16.707031 0 16.375 0 L 15.21875 0 C 14.769531 0 14.398438 -0.0859375 14.109375 -0.265625 C 13.828125 -0.453125 13.597656 -0.816406 13.421875 -1.359375 L 13.140625 -2.15625 C 11.816406 -0.601562 10.160156 0.171875 8.171875 0.171875 Z M 8.171875 0.171875 "/></g></g><g style="fill:#38bdae;fill-opacity:1;"><g transform="translate(191.790989, 33.35556)"><path style="stroke:none" d="M 9.859375 -14.609375 C 11.972656 -14.609375 13.664062 -14.21875 14.9375 -13.4375 C 16.207031 -12.65625 16.84375 -11.460938 16.84375 -9.859375 C 16.84375 -9.253906 16.734375 -8.5625 16.515625 -7.78125 L 15.375 -3.96875 C 15.351562 -3.894531 15.34375 -3.804688 15.34375 -3.703125 C 15.34375 -3.410156 15.460938 -3.265625 15.703125 -3.265625 C 15.929688 -3.265625 16.125 -3.359375 16.28125 -3.546875 C 16.4375 -3.742188 16.539062 -3.84375 16.59375 -3.84375 C 16.6875 -3.84375 16.765625 -3.773438 16.828125 -3.640625 C 16.890625 -3.515625 16.921875 -3.367188 16.921875 -3.203125 C 16.941406 -2.703125 16.753906 -2.191406 16.359375 -1.671875 C 15.960938 -1.160156 15.429688 -0.738281 14.765625 -0.40625 C 14.109375 -0.0820312 13.382812 0.078125 12.59375 0.078125 C 11.632812 0.078125 10.8125 -0.09375 10.125 -0.4375 C 9.445312 -0.789062 8.976562 -1.304688 8.71875 -1.984375 C 8.164062 -1.328125 7.507812 -0.816406 6.75 -0.453125 C 6 -0.0976562 5.191406 0.078125 4.328125 0.078125 C 3.359375 0.078125 2.539062 -0.109375 1.875 -0.484375 C 1.21875 -0.859375 0.726562 -1.34375 0.40625 -1.9375 C 0.0820312 -2.539062 -0.078125 -3.175781 -0.078125 -3.84375 C -0.078125 -4.132812 -0.0507812 -4.414062 0 -4.6875 C 0.289062 -5.957031 0.925781 -6.914062 1.90625 -7.5625 C 2.894531 -8.207031 4.070312 -8.53125 5.4375 -8.53125 C 6.96875 -8.53125 8.46875 -8.289062 9.9375 -7.8125 L 10.625 -9.640625 C 10.863281 -10.410156 10.984375 -11.007812 10.984375 -11.4375 C 10.960938 -11.875 10.8125 -12.203125 10.53125 -12.421875 C 10.257812 -12.640625 9.84375 -12.75 9.28125 -12.75 C 9.382812 -12.457031 9.4375 -12.15625 9.4375 -11.84375 C 9.4375 -11.164062 9.175781 -10.578125 8.65625 -10.078125 C 8.144531 -9.578125 7.410156 -9.328125 6.453125 -9.328125 C 5.554688 -9.328125 4.851562 -9.523438 4.34375 -9.921875 C 3.84375 -10.316406 3.59375 -10.8125 3.59375 -11.40625 C 3.59375 -12.320312 4.109375 -13.082031 5.140625 -13.6875 C 6.171875 -14.300781 7.742188 -14.609375 9.859375 -14.609375 Z M 8.3125 -6.234375 C 7.789062 -6.234375 7.367188 -6.035156 7.046875 -5.640625 C 6.734375 -5.242188 6.578125 -4.816406 6.578125 -4.359375 C 6.578125 -4.066406 6.644531 -3.828125 6.78125 -3.640625 C 6.914062 -3.460938 7.113281 -3.375 7.375 -3.375 C 7.613281 -3.375 7.875 -3.46875 8.15625 -3.65625 C 8.445312 -3.851562 8.65625 -4.144531 8.78125 -4.53125 L 9.359375 -6.15625 C 9.046875 -6.207031 8.695312 -6.234375 8.3125 -6.234375 Z M 8.3125 -6.234375 "/></g></g><g style="fill:#38bdae;fill-opacity:1;"><g transform="translate(211.150257, 33.35556)"><path style="stroke:none" d="M 14.078125 -14.71875 C 15.441406 -14.71875 16.53125 -14.226562 17.34375 -13.25 C 18.164062 -12.28125 18.578125 -10.992188 18.578125 -9.390625 C 18.578125 -8.554688 18.476562 -7.742188 18.28125 -6.953125 C 17.6875 -4.578125 16.675781 -2.78125 15.25 -1.5625 C 13.820312 -0.351562 12.179688 0.25 10.328125 0.25 C 9.273438 0.25 8.363281 0.0703125 7.59375 -0.28125 C 6.832031 -0.644531 6.222656 -1.160156 5.765625 -1.828125 L 4.78125 -0.96875 C 4.394531 -0.632812 4.015625 -0.390625 3.640625 -0.234375 C 3.273438 -0.078125 2.851562 0 2.375 0 L 1.15625 0 C 0.695312 0 0.34375 -0.09375 0.09375 -0.28125 C -0.15625 -0.476562 -0.28125 -0.757812 -0.28125 -1.125 C -0.28125 -1.289062 -0.25 -1.488281 -0.1875 -1.71875 L 4.421875 -16.703125 C 4.472656 -16.867188 4.5 -17.007812 4.5 -17.125 C 4.5 -17.4375 4.304688 -17.726562 3.921875 -18 C 3.734375 -18.164062 3.601562 -18.296875 3.53125 -18.390625 C 3.457031 -18.492188 3.445312 -18.628906 3.5 -18.796875 C 3.632812 -19.222656 4.21875 -19.597656 5.25 -19.921875 C 6.289062 -20.242188 7.382812 -20.40625 8.53125 -20.40625 C 9.59375 -20.40625 10.378906 -20.195312 10.890625 -19.78125 C 11.398438 -19.363281 11.65625 -18.804688 11.65625 -18.109375 C 11.65625 -17.722656 11.585938 -17.335938 11.453125 -16.953125 L 10.296875 -13.203125 C 11.367188 -14.210938 12.628906 -14.71875 14.078125 -14.71875 Z M 10.953125 -7.125 C 11.328125 -8.375 11.515625 -9.382812 11.515625 -10.15625 C 11.515625 -11.007812 11.265625 -11.4375 10.765625 -11.4375 C 10.328125 -11.4375 9.914062 -11.203125 9.53125 -10.734375 L 7.734375 -4.890625 L 7.5625 -4.359375 C 7.46875 -4.085938 7.421875 -3.800781 7.421875 -3.5 C 7.421875 -2.863281 7.726562 -2.546875 8.34375 -2.546875 C 8.78125 -2.546875 9.203125 -2.863281 9.609375 -3.5 C 10.015625 -4.144531 10.460938 -5.351562 10.953125 -7.125 Z M 10.953125 -7.125 "/></g></g><g style="fill:#38bdae;fill-opacity:1;"><g transform="translate(231.144706, 33.35556)"><path style="stroke:none" d="M 13.5625 -14.609375 C 14.59375 -14.609375 15.414062 -14.296875 16.03125 -13.671875 C 16.644531 -13.046875 16.953125 -12.269531 16.953125 -11.34375 C 16.953125 -11 16.914062 -10.675781 16.84375 -10.375 C 16.65625 -9.625 16.300781 -9.046875 15.78125 -8.640625 C 15.269531 -8.234375 14.65625 -8.03125 13.9375 -8.03125 C 13.238281 -8.03125 12.707031 -8.195312 12.34375 -8.53125 C 11.988281 -8.863281 11.675781 -9.304688 11.40625 -9.859375 C 11.257812 -10.171875 11.117188 -10.398438 10.984375 -10.546875 C 10.859375 -10.691406 10.710938 -10.765625 10.546875 -10.765625 C 10.359375 -10.765625 10.195312 -10.691406 10.0625 -10.546875 C 9.925781 -10.398438 9.800781 -10.144531 9.6875 -9.78125 L 7.5625 -2.875 C 7.53125 -2.78125 7.515625 -2.640625 7.515625 -2.453125 C 7.515625 -2.210938 7.582031 -2.015625 7.71875 -1.859375 C 7.851562 -1.703125 8.039062 -1.550781 8.28125 -1.40625 C 8.5 -1.257812 8.644531 -1.140625 8.71875 -1.046875 C 8.789062 -0.953125 8.820312 -0.832031 8.8125 -0.6875 C 8.769531 -0.445312 8.632812 -0.269531 8.40625 -0.15625 C 8.175781 -0.0507812 7.785156 0 7.234375 0 L 0.171875 0 C -0.304688 0 -0.648438 -0.078125 -0.859375 -0.234375 C -1.078125 -0.390625 -1.160156 -0.597656 -1.109375 -0.859375 C -1.035156 -1.078125 -0.84375 -1.269531 -0.53125 -1.4375 C -0.25 -1.582031 -0.0195312 -1.753906 0.15625 -1.953125 C 0.34375 -2.160156 0.503906 -2.484375 0.640625 -2.921875 L 3.09375 -10.90625 C 3.125 -11 3.140625 -11.128906 3.140625 -11.296875 C 3.140625 -11.492188 3.097656 -11.644531 3.015625 -11.75 C 2.941406 -11.863281 2.8125 -12.003906 2.625 -12.171875 C 2.4375 -12.316406 2.304688 -12.445312 2.234375 -12.5625 C 2.160156 -12.675781 2.148438 -12.820312 2.203125 -13 C 2.316406 -13.425781 2.894531 -13.800781 3.9375 -14.125 C 4.988281 -14.445312 6.085938 -14.609375 7.234375 -14.609375 C 7.984375 -14.609375 8.609375 -14.4375 9.109375 -14.09375 C 9.609375 -13.75 9.929688 -13.265625 10.078125 -12.640625 C 10.960938 -13.953125 12.125 -14.609375 13.5625 -14.609375 Z M 13.5625 -14.609375 "/></g></g><g style="fill:#38bdae;fill-opacity:1;"><g transform="translate(248.432723, 33.35556)"><path style="stroke:none" d="M 7.25 -14.609375 C 8.320312 -14.609375 9.101562 -14.40625 9.59375 -14 C 10.09375 -13.59375 10.34375 -13.039062 10.34375 -12.34375 C 10.34375 -11.914062 10.28125 -11.507812 10.15625 -11.125 L 7.609375 -2.875 C 7.554688 -2.65625 7.53125 -2.460938 7.53125 -2.296875 C 7.53125 -2.054688 7.578125 -1.863281 7.671875 -1.71875 C 7.765625 -1.582031 7.894531 -1.453125 8.0625 -1.328125 C 8.1875 -1.191406 8.273438 -1.082031 8.328125 -1 C 8.390625 -0.925781 8.398438 -0.820312 8.359375 -0.6875 C 8.265625 -0.445312 8.078125 -0.269531 7.796875 -0.15625 C 7.523438 -0.0507812 7.101562 0 6.53125 0 L 0.25 0 C -0.226562 0 -0.578125 -0.078125 -0.796875 -0.234375 C -1.023438 -0.390625 -1.101562 -0.597656 -1.03125 -0.859375 C -0.957031 -1.078125 -0.765625 -1.269531 -0.453125 -1.4375 C -0.171875 -1.582031 0.0546875 -1.753906 0.234375 -1.953125 C 0.421875 -2.160156 0.582031 -2.484375 0.71875 -2.921875 L 3.109375 -10.90625 C 3.171875 -11.070312 3.203125 -11.207031 3.203125 -11.3125 C 3.203125 -11.519531 3.15625 -11.679688 3.0625 -11.796875 C 2.96875 -11.921875 2.828125 -12.046875 2.640625 -12.171875 C 2.460938 -12.316406 2.335938 -12.445312 2.265625 -12.5625 C 2.191406 -12.675781 2.179688 -12.820312 2.234375 -13 C 2.335938 -13.425781 2.914062 -13.800781 3.96875 -14.125 C 5.019531 -14.445312 6.113281 -14.609375 7.25 -14.609375 Z M 9.109375 -20.703125 C 9.816406 -20.703125 10.410156 -20.46875 10.890625 -20 C 11.367188 -19.53125 11.609375 -18.957031 11.609375 -18.28125 C 11.609375 -17.800781 11.484375 -17.328125 11.234375 -16.859375 C 10.992188 -16.398438 10.644531 -16.03125 10.1875 -15.75 C 9.738281 -15.46875 9.238281 -15.328125 8.6875 -15.328125 C 7.988281 -15.328125 7.40625 -15.5625 6.9375 -16.03125 C 6.46875 -16.5 6.222656 -17.082031 6.203125 -17.78125 C 6.203125 -18.238281 6.320312 -18.691406 6.5625 -19.140625 C 6.800781 -19.597656 7.140625 -19.972656 7.578125 -20.265625 C 8.023438 -20.554688 8.535156 -20.703125 9.109375 -20.703125 Z M 9.109375 -20.703125 "/></g></g><g style="fill:#38bdae;fill-opacity:1;"><g transform="translate(259.838423, 33.35556)"><path style="stroke:none" d="M 9.359375 -14.75 C 11.691406 -14.75 13.382812 -14.375 14.4375 -13.625 C 15.488281 -12.875 16.015625 -11.921875 16.015625 -10.765625 C 16.015625 -10.421875 15.976562 -10.097656 15.90625 -9.796875 C 15.625 -8.585938 14.851562 -7.71875 13.59375 -7.1875 C 12.332031 -6.664062 10.847656 -6.40625 9.140625 -6.40625 C 8.273438 -6.40625 7.460938 -6.460938 6.703125 -6.578125 C 6.691406 -5.617188 6.953125 -4.941406 7.484375 -4.546875 C 8.015625 -4.160156 8.757812 -3.96875 9.71875 -3.96875 C 10.15625 -3.96875 10.578125 -4.019531 10.984375 -4.125 C 11.390625 -4.226562 11.90625 -4.378906 12.53125 -4.578125 C 13.050781 -4.765625 13.398438 -4.859375 13.578125 -4.859375 C 13.785156 -4.859375 13.890625 -4.738281 13.890625 -4.5 C 13.910156 -3.851562 13.671875 -3.175781 13.171875 -2.46875 C 12.671875 -1.757812 11.929688 -1.15625 10.953125 -0.65625 C 9.984375 -0.164062 8.804688 0.078125 7.421875 0.078125 C 5.378906 0.078125 3.703125 -0.4375 2.390625 -1.46875 C 1.085938 -2.5 0.4375 -4 0.4375 -5.96875 C 0.4375 -6.519531 0.507812 -7.160156 0.65625 -7.890625 C 1.125 -10.160156 2.132812 -11.867188 3.6875 -13.015625 C 5.238281 -14.171875 7.128906 -14.75 9.359375 -14.75 Z M 6.90625 -8.234375 C 6.976562 -8.210938 7.078125 -8.203125 7.203125 -8.203125 C 7.972656 -8.203125 8.5625 -8.5625 8.96875 -9.28125 C 9.375 -10 9.566406 -10.796875 9.546875 -11.671875 C 9.535156 -12.191406 9.390625 -12.453125 9.109375 -12.453125 C 8.910156 -12.453125 8.671875 -12.289062 8.390625 -11.96875 C 8.117188 -11.644531 7.847656 -11.160156 7.578125 -10.515625 C 7.304688 -9.867188 7.082031 -9.109375 6.90625 -8.234375 Z M 6.90625 -8.234375 "/></g></g><g style="fill:#38bdae;fill-opacity:1;"><g transform="translate(276.601723, 33.35556)"><path style="stroke:none" d="M 8.8125 -20.40625 C 9.875 -20.40625 10.65625 -20.203125 11.15625 -19.796875 C 11.664062 -19.390625 11.921875 -18.835938 11.921875 -18.140625 C 11.921875 -17.734375 11.859375 -17.335938 11.734375 -16.953125 L 7.40625 -2.875 C 7.34375 -2.65625 7.3125 -2.460938 7.3125 -2.296875 C 7.3125 -2.054688 7.359375 -1.863281 7.453125 -1.71875 C 7.546875 -1.582031 7.675781 -1.453125 7.84375 -1.328125 C 7.96875 -1.191406 8.054688 -1.082031 8.109375 -1 C 8.171875 -0.925781 8.179688 -0.820312 8.140625 -0.6875 C 8.046875 -0.445312 7.859375 -0.269531 7.578125 -0.15625 C 7.304688 -0.0507812 6.890625 0 6.328125 0 L 0.03125 0 C -0.445312 0 -0.796875 -0.078125 -1.015625 -0.234375 C -1.242188 -0.390625 -1.320312 -0.597656 -1.25 -0.859375 C -1.164062 -1.078125 -0.96875 -1.269531 -0.65625 -1.4375 C -0.382812 -1.582031 -0.160156 -1.753906 0.015625 -1.953125 C 0.203125 -2.160156 0.363281 -2.484375 0.5 -2.921875 L 4.6875 -16.703125 C 4.75 -16.867188 4.78125 -17.007812 4.78125 -17.125 C 4.78125 -17.320312 4.726562 -17.484375 4.625 -17.609375 C 4.519531 -17.742188 4.382812 -17.875 4.21875 -18 C 4.039062 -18.144531 3.910156 -18.269531 3.828125 -18.375 C 3.742188 -18.488281 3.726562 -18.640625 3.78125 -18.828125 C 3.894531 -19.253906 4.472656 -19.625 5.515625 -19.9375 C 6.566406 -20.25 7.664062 -20.40625 8.8125 -20.40625 Z M 8.8125 -20.40625 "/></g></g><g style="fill:#38bdae;fill-opacity:1;"><g transform="translate(288.009975, 33.35556)"><path style="stroke:none" d=""/></g></g><g style="fill:#628eda;fill-opacity:1;"><g transform="translate(90.977448, 44.936024)"><path style="stroke:none" d="M 3.625 -5.0625 C 4.21875 -5.0625 4.671875 -4.875 4.984375 -4.5 C 5.304688 -4.125 5.46875 -3.640625 5.46875 -3.046875 C 5.46875 -2.734375 5.429688 -2.425781 5.359375 -2.125 C 5.285156 -1.832031 5.164062 -1.546875 5 -1.265625 C 4.84375 -0.992188 4.648438 -0.753906 4.421875 -0.546875 C 4.203125 -0.335938 3.929688 -0.171875 3.609375 -0.046875 C 3.285156 0.0664062 2.929688 0.125 2.546875 0.125 C 2.335938 0.125 2.125 0.0820312 1.90625 0 C 1.6875 -0.0703125 1.523438 -0.164062 1.421875 -0.28125 L 1.203125 -0.765625 L 1.0625 0 L 0.265625 0 L 1.46875 -6.828125 L 2.265625 -6.828125 L 1.796875 -4.140625 L 2.265625 -4.671875 C 2.617188 -4.929688 3.070312 -5.0625 3.625 -5.0625 Z M 2.65625 -0.484375 C 3.25 -0.484375 3.71875 -0.734375 4.0625 -1.234375 C 4.414062 -1.742188 4.59375 -2.335938 4.59375 -3.015625 C 4.59375 -3.441406 4.488281 -3.785156 4.28125 -4.046875 C 4.082031 -4.304688 3.789062 -4.4375 3.40625 -4.4375 C 2.945312 -4.4375 2.546875 -4.28125 2.203125 -3.96875 C 1.859375 -3.65625 1.625 -3.171875 1.5 -2.515625 L 1.453125 -2.234375 C 1.367188 -1.742188 1.425781 -1.328125 1.625 -0.984375 C 1.832031 -0.648438 2.175781 -0.484375 2.65625 -0.484375 Z M 2.65625 -0.484375 "/></g></g><g style="fill:#628eda;fill-opacity:1;"><g transform="translate(97.540605, 44.936024)"><path style="stroke:none" d="M 5.234375 -4.921875 L 4.375 0 L 3.5625 0 L 3.71875 -0.84375 L 3.3125 -0.28125 C 2.914062 -0.0078125 2.460938 0.125 1.953125 0.125 C 1.460938 0.125 1.085938 0.015625 0.828125 -0.203125 C 0.578125 -0.429688 0.453125 -0.742188 0.453125 -1.140625 C 0.453125 -1.390625 0.488281 -1.726562 0.5625 -2.15625 L 1.0625 -4.921875 L 1.875 -4.921875 L 1.375 -2.21875 C 1.3125 -1.832031 1.28125 -1.546875 1.28125 -1.359375 C 1.28125 -0.765625 1.597656 -0.476562 2.234375 -0.5 C 3.179688 -0.53125 3.785156 -1.285156 4.046875 -2.765625 L 4.4375 -4.921875 Z M 5.234375 -4.921875 "/></g></g><g style="fill:#628eda;fill-opacity:1;"><g transform="translate(103.880685, 44.936024)"><path style="stroke:none" d="M 1.890625 -4.28125 L 1.390625 -1.4375 C 1.335938 -1.1875 1.3125 -1.019531 1.3125 -0.9375 C 1.3125 -0.757812 1.375 -0.644531 1.5 -0.59375 C 1.632812 -0.539062 1.835938 -0.535156 2.109375 -0.578125 L 2 0 C 1.820312 0.0507812 1.625 0.078125 1.40625 0.078125 C 0.789062 0.078125 0.484375 -0.160156 0.484375 -0.640625 C 0.484375 -0.785156 0.515625 -1.039062 0.578125 -1.40625 L 1.09375 -4.28125 L 0.453125 -4.28125 L 0.5625 -4.890625 L 1.203125 -4.890625 L 1.40625 -6.03125 L 2.203125 -6.03125 L 2 -4.890625 L 2.84375 -4.890625 L 2.734375 -4.28125 Z M 1.890625 -4.28125 "/></g></g><g style="fill:#628eda;fill-opacity:1;"><g transform="translate(107.553125, 44.936024)"><path style="stroke:none" d=""/></g></g><g style="fill:#628eda;fill-opacity:1;"><g transform="translate(110.231015, 44.936024)"><path style="stroke:none" d="M 2.828125 -5.0625 C 3.359375 -5.0625 3.753906 -4.953125 4.015625 -4.734375 C 4.273438 -4.515625 4.40625 -4.21875 4.40625 -3.84375 C 4.40625 -3.675781 4.378906 -3.429688 4.328125 -3.109375 L 4 -1.25 C 3.9375 -0.894531 3.894531 -0.476562 3.875 0 L 3.0625 0 L 3.109375 -0.703125 L 2.75 -0.265625 C 2.488281 -0.00390625 2.054688 0.125 1.453125 0.125 C 1.085938 0.125 0.769531 0.015625 0.5 -0.203125 C 0.238281 -0.421875 0.109375 -0.734375 0.109375 -1.140625 C 0.109375 -1.828125 0.421875 -2.320312 1.046875 -2.625 C 1.671875 -2.9375 2.488281 -3.050781 3.5 -2.96875 L 3.53125 -3.09375 C 3.582031 -3.40625 3.609375 -3.625 3.609375 -3.75 C 3.609375 -3.957031 3.539062 -4.125 3.40625 -4.25 C 3.28125 -4.375 3.082031 -4.4375 2.8125 -4.4375 C 2.414062 -4.4375 2.113281 -4.351562 1.90625 -4.1875 C 1.695312 -4.019531 1.554688 -3.757812 1.484375 -3.40625 L 0.640625 -3.40625 C 0.742188 -3.925781 0.988281 -4.332031 1.375 -4.625 C 1.769531 -4.914062 2.253906 -5.0625 2.828125 -5.0625 Z M 1.828125 -0.484375 C 2.148438 -0.484375 2.457031 -0.613281 2.75 -0.875 C 3.050781 -1.144531 3.238281 -1.476562 3.3125 -1.875 L 3.40625 -2.375 C 2.71875 -2.445312 2.140625 -2.382812 1.671875 -2.1875 C 1.210938 -2 0.984375 -1.679688 0.984375 -1.234375 C 0.984375 -0.992188 1.0625 -0.804688 1.21875 -0.671875 C 1.375 -0.546875 1.578125 -0.484375 1.828125 -0.484375 Z M 1.828125 -0.484375 "/></g></g><g style="fill:#628eda;fill-opacity:1;"><g transform="translate(115.790317, 44.936024)"><path style="stroke:none" d="M 3.09375 -5.03125 C 3.21875 -5.03125 3.320312 -5.007812 3.40625 -4.96875 L 3.296875 -4.375 C 2.867188 -4.40625 2.492188 -4.285156 2.171875 -4.015625 C 1.859375 -3.742188 1.648438 -3.34375 1.546875 -2.8125 L 1.0625 0 L 0.265625 0 L 1.140625 -4.921875 L 1.9375 -4.921875 L 1.796875 -4.15625 L 2.359375 -4.8125 C 2.597656 -4.957031 2.84375 -5.03125 3.09375 -5.03125 Z M 3.09375 -5.03125 "/></g></g><g style="fill:#628eda;fill-opacity:1;"><g transform="translate(119.657954, 44.936024)"><path style="stroke:none" d="M 3.09375 -5.0625 C 3.8125 -5.0625 4.34375 -4.851562 4.6875 -4.4375 C 5.03125 -4.019531 5.203125 -3.5 5.203125 -2.875 C 5.203125 -2.53125 5.144531 -2.1875 5.03125 -1.84375 C 4.925781 -1.5 4.765625 -1.175781 4.546875 -0.875 C 4.328125 -0.570312 4.03125 -0.328125 3.65625 -0.140625 C 3.28125 0.0351562 2.851562 0.125 2.375 0.125 C 1.65625 0.125 1.125 -0.078125 0.78125 -0.484375 C 0.4375 -0.898438 0.265625 -1.421875 0.265625 -2.046875 C 0.265625 -2.390625 0.316406 -2.734375 0.421875 -3.078125 C 0.535156 -3.421875 0.703125 -3.742188 0.921875 -4.046875 C 1.140625 -4.347656 1.4375 -4.59375 1.8125 -4.78125 C 2.1875 -4.96875 2.613281 -5.0625 3.09375 -5.0625 Z M 2.46875 -0.484375 C 2.863281 -0.484375 3.207031 -0.601562 3.5 -0.84375 C 3.789062 -1.09375 4 -1.394531 4.125 -1.75 C 4.257812 -2.101562 4.328125 -2.472656 4.328125 -2.859375 C 4.328125 -3.328125 4.210938 -3.707031 3.984375 -4 C 3.765625 -4.289062 3.4375 -4.4375 3 -4.4375 C 2.601562 -4.4375 2.257812 -4.3125 1.96875 -4.0625 C 1.675781 -3.820312 1.460938 -3.523438 1.328125 -3.171875 C 1.203125 -2.828125 1.140625 -2.457031 1.140625 -2.0625 C 1.140625 -1.59375 1.25 -1.210938 1.46875 -0.921875 C 1.695312 -0.628906 2.03125 -0.484375 2.46875 -0.484375 Z M 2.46875 -0.484375 "/></g></g><g style="fill:#628eda;fill-opacity:1;"><g transform="translate(125.979447, 44.936024)"><path style="stroke:none" d="M 5.234375 -4.921875 L 4.375 0 L 3.5625 0 L 3.71875 -0.84375 L 3.3125 -0.28125 C 2.914062 -0.0078125 2.460938 0.125 1.953125 0.125 C 1.460938 0.125 1.085938 0.015625 0.828125 -0.203125 C 0.578125 -0.429688 0.453125 -0.742188 0.453125 -1.140625 C 0.453125 -1.390625 0.488281 -1.726562 0.5625 -2.15625 L 1.0625 -4.921875 L 1.875 -4.921875 L 1.375 -2.21875 C 1.3125 -1.832031 1.28125 -1.546875 1.28125 -1.359375 C 1.28125 -0.765625 1.597656 -0.476562 2.234375 -0.5 C 3.179688 -0.53125 3.785156 -1.285156 4.046875 -2.765625 L 4.4375 -4.921875 Z M 5.234375 -4.921875 "/></g></g><g style="fill:#628eda;fill-opacity:1;"><g transform="translate(132.319526, 44.936024)"><path style="stroke:none" d="M 3.546875 -5.0625 C 4.035156 -5.0625 4.40625 -4.945312 4.65625 -4.71875 C 4.914062 -4.5 5.046875 -4.191406 5.046875 -3.796875 C 5.046875 -3.535156 5.003906 -3.191406 4.921875 -2.765625 L 4.421875 0 L 3.625 0 L 4.125 -2.71875 C 4.1875 -3.101562 4.21875 -3.382812 4.21875 -3.5625 C 4.21875 -4.15625 3.898438 -4.441406 3.265625 -4.421875 C 2.304688 -4.398438 1.695312 -3.648438 1.4375 -2.171875 L 1.0625 0 L 0.265625 0 L 1.125 -4.921875 L 1.921875 -4.921875 L 1.78125 -4.078125 L 2.1875 -4.65625 C 2.582031 -4.925781 3.035156 -5.0625 3.546875 -5.0625 Z M 3.546875 -5.0625 "/></g></g><g style="fill:#628eda;fill-opacity:1;"><g transform="translate(138.706073, 44.936024)"><path style="stroke:none" d="M 5.78125 -6.828125 L 4.578125 0 L 3.78125 0 L 3.90625 -0.796875 L 3.453125 -0.265625 C 3.097656 -0.00390625 2.640625 0.125 2.078125 0.125 C 1.492188 0.125 1.039062 -0.0625 0.71875 -0.4375 C 0.394531 -0.8125 0.234375 -1.289062 0.234375 -1.875 C 0.234375 -2.1875 0.269531 -2.492188 0.34375 -2.796875 C 0.425781 -3.097656 0.546875 -3.382812 0.703125 -3.65625 C 0.859375 -3.925781 1.046875 -4.164062 1.265625 -4.375 C 1.492188 -4.582031 1.769531 -4.75 2.09375 -4.875 C 2.414062 -5 2.769531 -5.0625 3.15625 -5.0625 C 3.375 -5.0625 3.585938 -5.019531 3.796875 -4.9375 C 4.015625 -4.863281 4.175781 -4.769531 4.28125 -4.65625 L 4.515625 -4.171875 L 4.984375 -6.828125 Z M 4.203125 -2.421875 L 4.25 -2.6875 C 4.332031 -3.175781 4.269531 -3.585938 4.0625 -3.921875 C 3.863281 -4.265625 3.523438 -4.4375 3.046875 -4.4375 C 2.460938 -4.4375 1.992188 -4.179688 1.640625 -3.671875 C 1.285156 -3.171875 1.109375 -2.585938 1.109375 -1.921875 C 1.109375 -1.484375 1.207031 -1.132812 1.40625 -0.875 C 1.613281 -0.613281 1.914062 -0.484375 2.3125 -0.484375 C 2.757812 -0.484375 3.15625 -0.640625 3.5 -0.953125 C 3.851562 -1.265625 4.085938 -1.753906 4.203125 -2.421875 Z M 4.203125 -2.421875 "/></g></g><g style="fill:#628eda;fill-opacity:1;"><g transform="translate(145.250644, 44.936024)"><path style="stroke:none" d=""/></g></g><g style="fill:#628eda;fill-opacity:1;"><g transform="translate(147.928533, 44.936024)"><path style="stroke:none" d="M 3.546875 -5.0625 C 4.035156 -5.0625 4.40625 -4.945312 4.65625 -4.71875 C 4.914062 -4.5 5.046875 -4.191406 5.046875 -3.796875 C 5.046875 -3.535156 5.003906 -3.191406 4.921875 -2.765625 L 4.421875 0 L 3.625 0 L 4.125 -2.71875 C 4.1875 -3.101562 4.21875 -3.382812 4.21875 -3.5625 C 4.21875 -4.15625 3.898438 -4.441406 3.265625 -4.421875 C 2.304688 -4.398438 1.695312 -3.648438 1.4375 -2.171875 L 1.0625 0 L 0.265625 0 L 1.46875 -6.875 L 2.265625 -6.875 L 1.78125 -4.078125 L 2.1875 -4.65625 C 2.582031 -4.925781 3.035156 -5.0625 3.546875 -5.0625 Z M 3.546875 -5.0625 "/></g></g><g style="fill:#628eda;fill-opacity:1;"><g transform="translate(154.31508, 44.936024)"><path style="stroke:none" d="M 4.6875 -2.21875 L 1.125 -2.21875 C 1.113281 -2.050781 1.109375 -1.921875 1.109375 -1.828125 C 1.109375 -1.378906 1.207031 -1.039062 1.40625 -0.8125 C 1.601562 -0.59375 1.875 -0.484375 2.21875 -0.484375 C 2.550781 -0.484375 2.851562 -0.578125 3.125 -0.765625 C 3.394531 -0.960938 3.582031 -1.238281 3.6875 -1.59375 L 4.53125 -1.59375 C 4.332031 -1.03125 4.007812 -0.601562 3.5625 -0.3125 C 3.113281 -0.0195312 2.617188 0.125 2.078125 0.125 C 1.515625 0.125 1.066406 -0.0390625 0.734375 -0.375 C 0.398438 -0.71875 0.234375 -1.191406 0.234375 -1.796875 C 0.234375 -2.179688 0.285156 -2.554688 0.390625 -2.921875 C 0.492188 -3.285156 0.648438 -3.628906 0.859375 -3.953125 C 1.066406 -4.285156 1.351562 -4.550781 1.71875 -4.75 C 2.082031 -4.957031 2.5 -5.0625 2.96875 -5.0625 C 3.539062 -5.0625 3.992188 -4.894531 4.328125 -4.5625 C 4.660156 -4.226562 4.828125 -3.78125 4.828125 -3.21875 C 4.828125 -2.875 4.78125 -2.539062 4.6875 -2.21875 Z M 2.859375 -4.4375 C 2.410156 -4.4375 2.050781 -4.285156 1.78125 -3.984375 C 1.519531 -3.691406 1.332031 -3.304688 1.21875 -2.828125 L 4 -2.828125 C 4.019531 -2.992188 4.03125 -3.109375 4.03125 -3.171875 C 4.03125 -3.578125 3.921875 -3.890625 3.703125 -4.109375 C 3.492188 -4.328125 3.210938 -4.4375 2.859375 -4.4375 Z M 2.859375 -4.4375 "/></g></g><g style="fill:#628eda;fill-opacity:1;"><g transform="translate(160.181113, 44.936024)"><path style="stroke:none" d="M 3.09375 -5.03125 C 3.21875 -5.03125 3.320312 -5.007812 3.40625 -4.96875 L 3.296875 -4.375 C 2.867188 -4.40625 2.492188 -4.285156 2.171875 -4.015625 C 1.859375 -3.742188 1.648438 -3.34375 1.546875 -2.8125 L 1.0625 0 L 0.265625 0 L 1.140625 -4.921875 L 1.9375 -4.921875 L 1.796875 -4.15625 L 2.359375 -4.8125 C 2.597656 -4.957031 2.84375 -5.03125 3.09375 -5.03125 Z M 3.09375 -5.03125 "/></g></g><g style="fill:#628eda;fill-opacity:1;"><g transform="translate(164.04875, 44.936024)"><path style="stroke:none" d="M 4.6875 -2.21875 L 1.125 -2.21875 C 1.113281 -2.050781 1.109375 -1.921875 1.109375 -1.828125 C 1.109375 -1.378906 1.207031 -1.039062 1.40625 -0.8125 C 1.601562 -0.59375 1.875 -0.484375 2.21875 -0.484375 C 2.550781 -0.484375 2.851562 -0.578125 3.125 -0.765625 C 3.394531 -0.960938 3.582031 -1.238281 3.6875 -1.59375 L 4.53125 -1.59375 C 4.332031 -1.03125 4.007812 -0.601562 3.5625 -0.3125 C 3.113281 -0.0195312 2.617188 0.125 2.078125 0.125 C 1.515625 0.125 1.066406 -0.0390625 0.734375 -0.375 C 0.398438 -0.71875 0.234375 -1.191406 0.234375 -1.796875 C 0.234375 -2.179688 0.285156 -2.554688 0.390625 -2.921875 C 0.492188 -3.285156 0.648438 -3.628906 0.859375 -3.953125 C 1.066406 -4.285156 1.351562 -4.550781 1.71875 -4.75 C 2.082031 -4.957031 2.5 -5.0625 2.96875 -5.0625 C 3.539062 -5.0625 3.992188 -4.894531 4.328125 -4.5625 C 4.660156 -4.226562 4.828125 -3.78125 4.828125 -3.21875 C 4.828125 -2.875 4.78125 -2.539062 4.6875 -2.21875 Z M 2.859375 -4.4375 C 2.410156 -4.4375 2.050781 -4.285156 1.78125 -3.984375 C 1.519531 -3.691406 1.332031 -3.304688 1.21875 -2.828125 L 4 -2.828125 C 4.019531 -2.992188 4.03125 -3.109375 4.03125 -3.171875 C 4.03125 -3.578125 3.921875 -3.890625 3.703125 -4.109375 C 3.492188 -4.328125 3.210938 -4.4375 2.859375 -4.4375 Z M 2.859375 -4.4375 "/></g></g><g style="fill:#628eda;fill-opacity:1;"><g transform="translate(169.914783, 44.936024)"><path style="stroke:none" d=""/></g></g><g style="fill:#628eda;fill-opacity:1;"><g transform="translate(172.592672, 44.936024)"><path style="stroke:none" d="M 5.078125 -4.921875 L 2.34375 0 C 1.914062 0.769531 1.550781 1.285156 1.25 1.546875 C 0.945312 1.816406 0.566406 1.953125 0.109375 1.953125 C -0.0234375 1.953125 -0.15625 1.941406 -0.28125 1.921875 L -0.171875 1.265625 C -0.0664062 1.285156 0.03125 1.296875 0.125 1.296875 C 0.375 1.296875 0.585938 1.226562 0.765625 1.09375 C 0.941406 0.96875 1.117188 0.742188 1.296875 0.421875 L 1.375 0.265625 L 0.328125 -4.921875 L 1.234375 -4.921875 L 1.9375 -0.578125 L 4.171875 -4.921875 Z M 5.078125 -4.921875 "/></g></g><g style="fill:#628eda;fill-opacity:1;"><g transform="translate(178.040441, 44.936024)"><path style="stroke:none" d="M 3.09375 -5.0625 C 3.8125 -5.0625 4.34375 -4.851562 4.6875 -4.4375 C 5.03125 -4.019531 5.203125 -3.5 5.203125 -2.875 C 5.203125 -2.53125 5.144531 -2.1875 5.03125 -1.84375 C 4.925781 -1.5 4.765625 -1.175781 4.546875 -0.875 C 4.328125 -0.570312 4.03125 -0.328125 3.65625 -0.140625 C 3.28125 0.0351562 2.851562 0.125 2.375 0.125 C 1.65625 0.125 1.125 -0.078125 0.78125 -0.484375 C 0.4375 -0.898438 0.265625 -1.421875 0.265625 -2.046875 C 0.265625 -2.390625 0.316406 -2.734375 0.421875 -3.078125 C 0.535156 -3.421875 0.703125 -3.742188 0.921875 -4.046875 C 1.140625 -4.347656 1.4375 -4.59375 1.8125 -4.78125 C 2.1875 -4.96875 2.613281 -5.0625 3.09375 -5.0625 Z M 2.46875 -0.484375 C 2.863281 -0.484375 3.207031 -0.601562 3.5 -0.84375 C 3.789062 -1.09375 4 -1.394531 4.125 -1.75 C 4.257812 -2.101562 4.328125 -2.472656 4.328125 -2.859375 C 4.328125 -3.328125 4.210938 -3.707031 3.984375 -4 C 3.765625 -4.289062 3.4375 -4.4375 3 -4.4375 C 2.601562 -4.4375 2.257812 -4.3125 1.96875 -4.0625 C 1.675781 -3.820312 1.460938 -3.523438 1.328125 -3.171875 C 1.203125 -2.828125 1.140625 -2.457031 1.140625 -2.0625 C 1.140625 -1.59375 1.25 -1.210938 1.46875 -0.921875 C 1.695312 -0.628906 2.03125 -0.484375 2.46875 -0.484375 Z M 2.46875 -0.484375 "/></g></g><g style="fill:#628eda;fill-opacity:1;"><g transform="translate(184.361933, 44.936024)"><path style="stroke:none" d="M 5.234375 -4.921875 L 4.375 0 L 3.5625 0 L 3.71875 -0.84375 L 3.3125 -0.28125 C 2.914062 -0.0078125 2.460938 0.125 1.953125 0.125 C 1.460938 0.125 1.085938 0.015625 0.828125 -0.203125 C 0.578125 -0.429688 0.453125 -0.742188 0.453125 -1.140625 C 0.453125 -1.390625 0.488281 -1.726562 0.5625 -2.15625 L 1.0625 -4.921875 L 1.875 -4.921875 L 1.375 -2.21875 C 1.3125 -1.832031 1.28125 -1.546875 1.28125 -1.359375 C 1.28125 -0.765625 1.597656 -0.476562 2.234375 -0.5 C 3.179688 -0.53125 3.785156 -1.285156 4.046875 -2.765625 L 4.4375 -4.921875 Z M 5.234375 -4.921875 "/></g></g><g style="fill:#628eda;fill-opacity:1;"><g transform="translate(190.702013, 44.936024)"><path style="stroke:none" d=""/></g></g><g style="fill:#628eda;fill-opacity:1;"><g transform="translate(193.379903, 44.936024)"><path style="stroke:none" d="M 3.046875 -5.0625 C 3.617188 -5.0625 4.050781 -4.898438 4.34375 -4.578125 C 4.632812 -4.265625 4.78125 -3.828125 4.78125 -3.265625 L 3.953125 -3.265625 C 3.910156 -4.046875 3.5625 -4.4375 2.90625 -4.4375 C 2.382812 -4.4375 1.953125 -4.195312 1.609375 -3.71875 C 1.273438 -3.238281 1.109375 -2.613281 1.109375 -1.84375 C 1.109375 -1.382812 1.207031 -1.039062 1.40625 -0.8125 C 1.601562 -0.59375 1.863281 -0.484375 2.1875 -0.484375 C 2.894531 -0.484375 3.394531 -0.847656 3.6875 -1.578125 L 4.515625 -1.578125 C 4.273438 -0.992188 3.957031 -0.5625 3.5625 -0.28125 C 3.164062 -0.0078125 2.664062 0.125 2.0625 0.125 C 1.519531 0.125 1.078125 -0.0390625 0.734375 -0.375 C 0.398438 -0.707031 0.234375 -1.1875 0.234375 -1.8125 C 0.234375 -2.375 0.335938 -2.894531 0.546875 -3.375 C 0.753906 -3.863281 1.078125 -4.265625 1.515625 -4.578125 C 1.953125 -4.898438 2.460938 -5.0625 3.046875 -5.0625 Z M 3.046875 -5.0625 "/></g></g><g style="fill:#628eda;fill-opacity:1;"><g transform="translate(199.171576, 44.936024)"><path style="stroke:none" d="M 2.828125 -5.0625 C 3.359375 -5.0625 3.753906 -4.953125 4.015625 -4.734375 C 4.273438 -4.515625 4.40625 -4.21875 4.40625 -3.84375 C 4.40625 -3.675781 4.378906 -3.429688 4.328125 -3.109375 L 4 -1.25 C 3.9375 -0.894531 3.894531 -0.476562 3.875 0 L 3.0625 0 L 3.109375 -0.703125 L 2.75 -0.265625 C 2.488281 -0.00390625 2.054688 0.125 1.453125 0.125 C 1.085938 0.125 0.769531 0.015625 0.5 -0.203125 C 0.238281 -0.421875 0.109375 -0.734375 0.109375 -1.140625 C 0.109375 -1.828125 0.421875 -2.320312 1.046875 -2.625 C 1.671875 -2.9375 2.488281 -3.050781 3.5 -2.96875 L 3.53125 -3.09375 C 3.582031 -3.40625 3.609375 -3.625 3.609375 -3.75 C 3.609375 -3.957031 3.539062 -4.125 3.40625 -4.25 C 3.28125 -4.375 3.082031 -4.4375 2.8125 -4.4375 C 2.414062 -4.4375 2.113281 -4.351562 1.90625 -4.1875 C 1.695312 -4.019531 1.554688 -3.757812 1.484375 -3.40625 L 0.640625 -3.40625 C 0.742188 -3.925781 0.988281 -4.332031 1.375 -4.625 C 1.769531 -4.914062 2.253906 -5.0625 2.828125 -5.0625 Z M 1.828125 -0.484375 C 2.148438 -0.484375 2.457031 -0.613281 2.75 -0.875 C 3.050781 -1.144531 3.238281 -1.476562 3.3125 -1.875 L 3.40625 -2.375 C 2.71875 -2.445312 2.140625 -2.382812 1.671875 -2.1875 C 1.210938 -2 0.984375 -1.679688 0.984375 -1.234375 C 0.984375 -0.992188 1.0625 -0.804688 1.21875 -0.671875 C 1.375 -0.546875 1.578125 -0.484375 1.828125 -0.484375 Z M 1.828125 -0.484375 "/></g></g><g style="fill:#628eda;fill-opacity:1;"><g transform="translate(204.730878, 44.936024)"><path style="stroke:none" d="M 3.546875 -5.0625 C 4.035156 -5.0625 4.40625 -4.945312 4.65625 -4.71875 C 4.914062 -4.5 5.046875 -4.191406 5.046875 -3.796875 C 5.046875 -3.535156 5.003906 -3.191406 4.921875 -2.765625 L 4.421875 0 L 3.625 0 L 4.125 -2.71875 C 4.1875 -3.101562 4.21875 -3.382812 4.21875 -3.5625 C 4.21875 -4.15625 3.898438 -4.441406 3.265625 -4.421875 C 2.304688 -4.398438 1.695312 -3.648438 1.4375 -2.171875 L 1.0625 0 L 0.265625 0 L 1.125 -4.921875 L 1.921875 -4.921875 L 1.78125 -4.078125 L 2.1875 -4.65625 C 2.582031 -4.925781 3.035156 -5.0625 3.546875 -5.0625 Z M 3.546875 -5.0625 "/></g></g><g style="fill:#628eda;fill-opacity:1;"><g transform="translate(211.117425, 44.936024)"><path style="stroke:none" d=""/></g></g><g style="fill:#628eda;fill-opacity:1;"><g transform="translate(213.795314, 44.936024)"><path style="stroke:none" d="M 3.046875 -5.0625 C 3.617188 -5.0625 4.050781 -4.898438 4.34375 -4.578125 C 4.632812 -4.265625 4.78125 -3.828125 4.78125 -3.265625 L 3.953125 -3.265625 C 3.910156 -4.046875 3.5625 -4.4375 2.90625 -4.4375 C 2.382812 -4.4375 1.953125 -4.195312 1.609375 -3.71875 C 1.273438 -3.238281 1.109375 -2.613281 1.109375 -1.84375 C 1.109375 -1.382812 1.207031 -1.039062 1.40625 -0.8125 C 1.601562 -0.59375 1.863281 -0.484375 2.1875 -0.484375 C 2.894531 -0.484375 3.394531 -0.847656 3.6875 -1.578125 L 4.515625 -1.578125 C 4.273438 -0.992188 3.957031 -0.5625 3.5625 -0.28125 C 3.164062 -0.0078125 2.664062 0.125 2.0625 0.125 C 1.519531 0.125 1.078125 -0.0390625 0.734375 -0.375 C 0.398438 -0.707031 0.234375 -1.1875 0.234375 -1.8125 C 0.234375 -2.375 0.335938 -2.894531 0.546875 -3.375 C 0.753906 -3.863281 1.078125 -4.265625 1.515625 -4.578125 C 1.953125 -4.898438 2.460938 -5.0625 3.046875 -5.0625 Z M 3.046875 -5.0625 "/></g></g><g style="fill:#628eda;fill-opacity:1;"><g transform="translate(219.586987, 44.936024)"><path style="stroke:none" d="M 2.828125 -5.0625 C 3.359375 -5.0625 3.753906 -4.953125 4.015625 -4.734375 C 4.273438 -4.515625 4.40625 -4.21875 4.40625 -3.84375 C 4.40625 -3.675781 4.378906 -3.429688 4.328125 -3.109375 L 4 -1.25 C 3.9375 -0.894531 3.894531 -0.476562 3.875 0 L 3.0625 0 L 3.109375 -0.703125 L 2.75 -0.265625 C 2.488281 -0.00390625 2.054688 0.125 1.453125 0.125 C 1.085938 0.125 0.769531 0.015625 0.5 -0.203125 C 0.238281 -0.421875 0.109375 -0.734375 0.109375 -1.140625 C 0.109375 -1.828125 0.421875 -2.320312 1.046875 -2.625 C 1.671875 -2.9375 2.488281 -3.050781 3.5 -2.96875 L 3.53125 -3.09375 C 3.582031 -3.40625 3.609375 -3.625 3.609375 -3.75 C 3.609375 -3.957031 3.539062 -4.125 3.40625 -4.25 C 3.28125 -4.375 3.082031 -4.4375 2.8125 -4.4375 C 2.414062 -4.4375 2.113281 -4.351562 1.90625 -4.1875 C 1.695312 -4.019531 1.554688 -3.757812 1.484375 -3.40625 L 0.640625 -3.40625 C 0.742188 -3.925781 0.988281 -4.332031 1.375 -4.625 C 1.769531 -4.914062 2.253906 -5.0625 2.828125 -5.0625 Z M 1.828125 -0.484375 C 2.148438 -0.484375 2.457031 -0.613281 2.75 -0.875 C 3.050781 -1.144531 3.238281 -1.476562 3.3125 -1.875 L 3.40625 -2.375 C 2.71875 -2.445312 2.140625 -2.382812 1.671875 -2.1875 C 1.210938 -2 0.984375 -1.679688 0.984375 -1.234375 C 0.984375 -0.992188 1.0625 -0.804688 1.21875 -0.671875 C 1.375 -0.546875 1.578125 -0.484375 1.828125 -0.484375 Z M 1.828125 -0.484375 "/></g></g><g style="fill:#628eda;fill-opacity:1;"><g transform="translate(225.146289, 44.936024)"><path style="stroke:none" d="M 2.21875 -6.828125 L 1.265625 -1.40625 C 1.222656 -1.175781 1.203125 -1.019531 1.203125 -0.9375 C 1.203125 -0.78125 1.238281 -0.675781 1.3125 -0.625 C 1.394531 -0.582031 1.535156 -0.566406 1.734375 -0.578125 L 1.640625 0 C 1.472656 0.0195312 1.28125 0.03125 1.0625 0.03125 C 0.832031 0.03125 0.65625 -0.0078125 0.53125 -0.09375 C 0.40625 -0.175781 0.34375 -0.332031 0.34375 -0.5625 C 0.34375 -0.675781 0.382812 -0.953125 0.46875 -1.390625 L 1.421875 -6.828125 Z M 2.21875 -6.828125 "/></g></g><g style="fill:#628eda;fill-opacity:1;"><g transform="translate(228.307508, 44.936024)"><path style="stroke:none" d="M 2.21875 -6.828125 L 1.265625 -1.40625 C 1.222656 -1.175781 1.203125 -1.019531 1.203125 -0.9375 C 1.203125 -0.78125 1.238281 -0.675781 1.3125 -0.625 C 1.394531 -0.582031 1.535156 -0.566406 1.734375 -0.578125 L 1.640625 0 C 1.472656 0.0195312 1.28125 0.03125 1.0625 0.03125 C 0.832031 0.03125 0.65625 -0.0078125 0.53125 -0.09375 C 0.40625 -0.175781 0.34375 -0.332031 0.34375 -0.5625 C 0.34375 -0.675781 0.382812 -0.953125 0.46875 -1.390625 L 1.421875 -6.828125 Z M 2.21875 -6.828125 "/></g></g><g style="fill:#628eda;fill-opacity:1;"><g transform="translate(231.468727, 44.936024)"><path style="stroke:none" d=""/></g></g><g style="fill:#628eda;fill-opacity:1;"><g transform="translate(234.146616, 44.936024)"><path style="stroke:none" d="M 6.203125 -5.0625 C 6.628906 -5.0625 6.953125 -4.953125 7.171875 -4.734375 C 7.390625 -4.515625 7.5 -4.226562 7.5 -3.875 C 7.5 -3.664062 7.460938 -3.378906 7.390625 -3.015625 L 6.859375 0 L 6.0625 0 L 6.53125 -2.640625 C 6.613281 -3.128906 6.65625 -3.46875 6.65625 -3.65625 C 6.65625 -4.164062 6.375 -4.421875 5.8125 -4.421875 C 5.5 -4.421875 5.210938 -4.238281 4.953125 -3.875 C 4.691406 -3.519531 4.503906 -3.046875 4.390625 -2.453125 L 4.390625 -2.4375 L 3.953125 0 L 3.15625 0 L 3.625 -2.640625 C 3.707031 -3.128906 3.75 -3.46875 3.75 -3.65625 C 3.75 -4.164062 3.472656 -4.421875 2.921875 -4.421875 C 2.597656 -4.421875 2.300781 -4.238281 2.03125 -3.875 C 1.769531 -3.519531 1.585938 -3.039062 1.484375 -2.4375 L 1.0625 0 L 0.265625 0 L 1.125 -4.921875 L 1.921875 -4.921875 L 1.796875 -4.203125 L 2.21875 -4.765625 C 2.488281 -4.960938 2.851562 -5.0625 3.3125 -5.0625 C 3.675781 -5.0625 3.960938 -4.976562 4.171875 -4.8125 C 4.378906 -4.644531 4.515625 -4.421875 4.578125 -4.140625 L 5.109375 -4.765625 C 5.378906 -4.960938 5.742188 -5.0625 6.203125 -5.0625 Z M 6.203125 -5.0625 "/></g></g><g style="fill:#628eda;fill-opacity:1;"><g transform="translate(242.949845, 44.936024)"><path style="stroke:none" d="M 4.6875 -2.21875 L 1.125 -2.21875 C 1.113281 -2.050781 1.109375 -1.921875 1.109375 -1.828125 C 1.109375 -1.378906 1.207031 -1.039062 1.40625 -0.8125 C 1.601562 -0.59375 1.875 -0.484375 2.21875 -0.484375 C 2.550781 -0.484375 2.851562 -0.578125 3.125 -0.765625 C 3.394531 -0.960938 3.582031 -1.238281 3.6875 -1.59375 L 4.53125 -1.59375 C 4.332031 -1.03125 4.007812 -0.601562 3.5625 -0.3125 C 3.113281 -0.0195312 2.617188 0.125 2.078125 0.125 C 1.515625 0.125 1.066406 -0.0390625 0.734375 -0.375 C 0.398438 -0.71875 0.234375 -1.191406 0.234375 -1.796875 C 0.234375 -2.179688 0.285156 -2.554688 0.390625 -2.921875 C 0.492188 -3.285156 0.648438 -3.628906 0.859375 -3.953125 C 1.066406 -4.285156 1.351562 -4.550781 1.71875 -4.75 C 2.082031 -4.957031 2.5 -5.0625 2.96875 -5.0625 C 3.539062 -5.0625 3.992188 -4.894531 4.328125 -4.5625 C 4.660156 -4.226562 4.828125 -3.78125 4.828125 -3.21875 C 4.828125 -2.875 4.78125 -2.539062 4.6875 -2.21875 Z M 2.859375 -4.4375 C 2.410156 -4.4375 2.050781 -4.285156 1.78125 -3.984375 C 1.519531 -3.691406 1.332031 -3.304688 1.21875 -2.828125 L 4 -2.828125 C 4.019531 -2.992188 4.03125 -3.109375 4.03125 -3.171875 C 4.03125 -3.578125 3.921875 -3.890625 3.703125 -4.109375 C 3.492188 -4.328125 3.210938 -4.4375 2.859375 -4.4375 Z M 2.859375 -4.4375 "/></g></g><g style="fill:#628eda;fill-opacity:1;"><g transform="translate(248.815877, 44.936024)"><path style="stroke:none" d=""/></g></g><g style="fill:#628eda;fill-opacity:1;"><g transform="translate(251.493767, 44.936024)"><path style="stroke:none" d="M 4.078125 -6.390625 C 4.753906 -6.328125 5.3125 -6.0625 5.75 -5.59375 C 6.1875 -5.125 6.40625 -4.472656 6.40625 -3.640625 C 6.40625 -3.210938 6.332031 -2.796875 6.1875 -2.390625 C 6.050781 -1.992188 5.847656 -1.628906 5.578125 -1.296875 C 5.304688 -0.960938 4.953125 -0.679688 4.515625 -0.453125 C 4.078125 -0.222656 3.585938 -0.0820312 3.046875 -0.03125 C 2.816406 -0.0078125 2.539062 0 2.21875 0 L 0.484375 0 L 1.625 -6.421875 L 3.265625 -6.421875 C 3.585938 -6.421875 3.859375 -6.410156 4.078125 -6.390625 Z M 3.109375 -0.6875 C 3.648438 -0.757812 4.101562 -0.945312 4.46875 -1.25 C 4.84375 -1.550781 5.109375 -1.898438 5.265625 -2.296875 C 5.429688 -2.703125 5.515625 -3.144531 5.515625 -3.625 C 5.515625 -4.257812 5.367188 -4.753906 5.078125 -5.109375 C 4.796875 -5.460938 4.414062 -5.671875 3.9375 -5.734375 C 3.757812 -5.753906 3.523438 -5.765625 3.234375 -5.765625 L 2.296875 -5.765625 L 1.390625 -0.65625 L 2.375 -0.65625 C 2.675781 -0.65625 2.921875 -0.664062 3.109375 -0.6875 Z M 3.109375 -0.6875 "/></g></g><g style="fill:#628eda;fill-opacity:1;"><g transform="translate(258.958528, 44.936024)"><path style="stroke:none" d="M 3.546875 -5.0625 C 4.035156 -5.0625 4.40625 -4.945312 4.65625 -4.71875 C 4.914062 -4.5 5.046875 -4.191406 5.046875 -3.796875 C 5.046875 -3.535156 5.003906 -3.191406 4.921875 -2.765625 L 4.421875 0 L 3.625 0 L 4.125 -2.71875 C 4.1875 -3.101562 4.21875 -3.382812 4.21875 -3.5625 C 4.21875 -4.15625 3.898438 -4.441406 3.265625 -4.421875 C 2.304688 -4.398438 1.695312 -3.648438 1.4375 -2.171875 L 1.0625 0 L 0.265625 0 L 1.46875 -6.875 L 2.265625 -6.875 L 1.78125 -4.078125 L 2.1875 -4.65625 C 2.582031 -4.925781 3.035156 -5.0625 3.546875 -5.0625 Z M 3.546875 -5.0625 "/></g></g><g style="fill:#628eda;fill-opacity:1;"><g transform="translate(265.345075, 44.936024)"><path style="stroke:none" d="M 4.6875 -2.21875 L 1.125 -2.21875 C 1.113281 -2.050781 1.109375 -1.921875 1.109375 -1.828125 C 1.109375 -1.378906 1.207031 -1.039062 1.40625 -0.8125 C 1.601562 -0.59375 1.875 -0.484375 2.21875 -0.484375 C 2.550781 -0.484375 2.851562 -0.578125 3.125 -0.765625 C 3.394531 -0.960938 3.582031 -1.238281 3.6875 -1.59375 L 4.53125 -1.59375 C 4.332031 -1.03125 4.007812 -0.601562 3.5625 -0.3125 C 3.113281 -0.0195312 2.617188 0.125 2.078125 0.125 C 1.515625 0.125 1.066406 -0.0390625 0.734375 -0.375 C 0.398438 -0.71875 0.234375 -1.191406 0.234375 -1.796875 C 0.234375 -2.179688 0.285156 -2.554688 0.390625 -2.921875 C 0.492188 -3.285156 0.648438 -3.628906 0.859375 -3.953125 C 1.066406 -4.285156 1.351562 -4.550781 1.71875 -4.75 C 2.082031 -4.957031 2.5 -5.0625 2.96875 -5.0625 C 3.539062 -5.0625 3.992188 -4.894531 4.328125 -4.5625 C 4.660156 -4.226562 4.828125 -3.78125 4.828125 -3.21875 C 4.828125 -2.875 4.78125 -2.539062 4.6875 -2.21875 Z M 2.859375 -4.4375 C 2.410156 -4.4375 2.050781 -4.285156 1.78125 -3.984375 C 1.519531 -3.691406 1.332031 -3.304688 1.21875 -2.828125 L 4 -2.828125 C 4.019531 -2.992188 4.03125 -3.109375 4.03125 -3.171875 C 4.03125 -3.578125 3.921875 -3.890625 3.703125 -4.109375 C 3.492188 -4.328125 3.210938 -4.4375 2.859375 -4.4375 Z M 2.859375 -4.4375 "/></g></g><g style="fill:#628eda;fill-opacity:1;"><g transform="translate(271.211108, 44.936024)"><path style="stroke:none" d="M 2.546875 -2.59375 L 4.40625 0 L 3.453125 0 L 1.96875 -2.140625 L 1.34375 -1.609375 L 1.0625 0 L 0.265625 0 L 1.46875 -6.828125 L 2.265625 -6.828125 L 1.5 -2.5 L 4.234375 -4.921875 L 5.25 -4.921875 Z M 2.546875 -2.59375 "/></g></g><g style="fill:#628eda;fill-opacity:1;"><g transform="translate(276.872661, 44.936024)"><path style="stroke:none" d="M 2.546875 -2.59375 L 4.40625 0 L 3.453125 0 L 1.96875 -2.140625 L 1.34375 -1.609375 L 1.0625 0 L 0.265625 0 L 1.46875 -6.828125 L 2.265625 -6.828125 L 1.5 -2.5 L 4.234375 -4.921875 L 5.25 -4.921875 Z M 2.546875 -2.59375 "/></g></g><g style="fill:#628eda;fill-opacity:1;"><g transform="translate(282.534202, 44.936024)"><path style="stroke:none" d="M 1.828125 -6.546875 C 1.953125 -6.546875 2.054688 -6.503906 2.140625 -6.421875 C 2.222656 -6.335938 2.265625 -6.238281 2.265625 -6.125 C 2.265625 -5.945312 2.203125 -5.800781 2.078125 -5.6875 C 1.960938 -5.570312 1.820312 -5.515625 1.65625 -5.515625 C 1.519531 -5.515625 1.410156 -5.554688 1.328125 -5.640625 C 1.253906 -5.722656 1.21875 -5.828125 1.21875 -5.953125 C 1.21875 -6.117188 1.273438 -6.257812 1.390625 -6.375 C 1.515625 -6.488281 1.660156 -6.546875 1.828125 -6.546875 Z M 1.0625 0 L 0.265625 0 L 1.140625 -4.921875 L 1.9375 -4.921875 Z M 1.0625 0 "/></g></g><g style="fill:#ffffff;fill-opacity:1;"><g transform="translate(285.576409, 44.936024)"><path style="stroke:none" d=""/></g></g></g></svg>